<svg preserveAspectRatio="none" width="100%" height="100%" overflow="visible" style="display: block;" viewBox="0 0 37 44" fill="none" xmlns="http://www.w3.org/2000/svg">
<g id="logo-yudin-tm">
<g id="Vector">
<path d="M36.3479 27.4632C36.2837 26.9954 35.9631 26.602 35.7173 26.2831C34.8408 25.188 33.1307 22.9448 33.1093 22.9235C32.7673 22.4876 31.9122 21.2012 32.0619 20.4676C32.0939 20.2975 32.1581 20.1168 32.2115 19.9466C32.2756 19.7553 32.3397 19.5639 32.3825 19.3619C32.5749 18.4157 32.2115 17.4482 31.9122 16.6721C31.7947 16.3638 31.6771 16.0555 31.5702 15.7472C31.3671 15.1837 31.1534 14.599 30.9182 14.0461C29.7211 11.1969 27.6049 8.73033 24.9648 7.07182C25.4779 6.32757 25.5954 5.28569 25.2427 4.42453C24.7938 3.34011 23.7036 2.46832 22.3035 2.09622C21.0636 1.76664 19.781 1.8198 18.5305 1.87296C15.9118 1.9899 13.2077 2.10685 10.6104 2.80854C8.569 3.36138 5.75796 4.54148 3.93029 7.02927C2.69044 8.70906 2.11327 10.7291 1.74987 12.3025C0.296263 18.5539 0.969623 24.3588 3.65237 28.6433C3.96236 29.143 4.31504 29.6426 4.6571 30.1105C5.25562 30.961 5.87555 31.8434 6.31375 32.7896C7.094 34.4907 7.08335 36.2023 6.28172 37.3718C6.28172 37.3718 6.2603 37.4037 6.24965 37.4356C6.20686 37.5206 6.16413 37.6802 6.24965 37.8822C6.40997 38.2968 7.00849 38.637 8.01322 38.8709C8.1094 38.8921 8.28043 38.9453 8.50485 39.0091C10.7601 39.6683 12.1282 39.9766 12.8657 39.9766C13.2184 39.9766 13.4536 39.8383 13.5497 39.7001L13.7208 39.4131L13.7421 39.3706L13.7849 39.2855L13.8704 39.1367C14.2231 38.5307 14.8751 37.3293 15.5698 35.7346C15.5805 35.7027 15.5912 35.6708 15.6019 35.6495C15.8798 34.9904 15.5377 34.9797 15.5377 34.9797C13.2718 34.884 11.5938 34.3312 10.3219 33.6295C11.2411 33.5657 11.8503 32.9491 11.9893 32.8003C12.3847 33.0129 12.7909 33.2255 13.2184 33.4275C13.2291 33.4275 13.2291 33.4381 13.2398 33.4381H13.2505C14.0093 33.789 14.8003 34.1079 15.6233 34.3631C15.634 34.3631 15.6446 34.3631 15.6553 34.3631C15.6981 34.3631 15.7408 34.3312 15.7622 34.2887C15.7836 34.2355 15.7515 34.1717 15.6874 34.1611C14.8965 33.9166 14.1376 33.6189 13.4108 33.2786C13.5284 32.9172 13.8811 31.5351 13.4963 29.8872C13.9131 30.238 14.2979 30.642 14.6399 31.0992C15.5912 32.3856 15.9012 33.7039 15.9546 33.9591C15.9546 33.9591 16.1577 34.3205 16.3928 33.7146C16.4035 33.6933 16.4035 33.672 16.4142 33.6508C16.6494 33.0235 16.8845 32.3537 17.0983 31.652C17.3975 30.6739 17.6754 29.6001 17.8999 28.4519C17.8999 28.4413 17.9105 28.42 17.9105 28.4094C17.9854 27.9629 17.654 28.0267 17.654 28.0267C16.66 28.1224 15.7943 28.0904 15.0354 27.9629C16.0508 27.7608 16.5852 27.0805 16.7349 26.8572C16.9486 26.9103 17.1731 26.9635 17.3975 27.006C17.4082 27.006 17.4082 27.006 17.4189 27.006C17.4723 27.006 17.5151 26.9741 17.5258 26.921C17.5365 26.8678 17.4937 26.804 17.4403 26.7934C16.8418 26.6871 16.2646 26.5169 15.7088 26.2831C15.7836 25.9429 15.9653 24.7521 15.3026 23.2743C16.799 24.3162 17.7503 25.5283 17.9533 25.8046C17.9533 25.8046 18.2098 26.2406 18.2633 25.9641C18.2633 25.9535 18.2633 25.9429 18.2633 25.9322C18.4129 24.38 18.4236 22.7534 18.2205 21.1161C18.1777 20.7972 17.8357 20.8504 17.8251 20.861C17.5685 20.9779 16.7349 21.2331 14.501 20.9567C13.8704 20.8822 13.336 20.744 12.8764 20.5633C14.0521 20.4357 14.7468 19.7659 14.9179 19.5852C15.3454 19.7021 15.7301 19.7872 16.0508 19.851C16.0615 19.8616 16.0829 19.8616 16.0936 19.8616C16.9166 20.0211 17.3975 20.0423 17.4082 20.0423C17.4616 20.0423 17.5151 19.9998 17.5151 19.936C17.5151 19.8722 17.4723 19.8297 17.4082 19.8297C17.3975 19.8297 16.9486 19.8085 16.1897 19.6596C16.1684 19.33 16.0401 18.1287 15.3026 16.8422C16.3821 17.5652 17.1838 18.5858 17.4082 18.8941C17.4296 18.9154 17.8037 19.0855 17.7396 18.7878C17.7396 18.7878 17.7396 18.7878 17.7396 18.7772C17.7396 18.7666 17.7396 18.7559 17.7288 18.7453C17.4616 17.7565 17.0983 16.7784 16.6173 15.8216L16.5852 15.7578L16.5211 15.7365C16.5104 15.7365 14.8965 15.2475 13.3146 14.0142C12.8123 13.6208 12.374 13.2062 11.9893 12.7597C12.4061 12.8766 12.8443 12.9192 13.2505 12.9192C14.1697 12.9192 14.982 12.6959 15.2385 12.6215C15.8157 13.5039 16.2966 14.4076 16.5852 15.29C16.5959 15.3326 16.6386 15.3644 16.6921 15.3644C16.7028 15.3644 16.7135 15.3644 16.7242 15.3644C16.7776 15.3432 16.8097 15.29 16.7883 15.2262C16.628 14.7478 16.4249 14.2587 16.1684 13.7697C16.318 13.5145 16.9379 12.3557 17.0127 10.8354C17.5151 12.058 17.8037 13.3232 17.1731 15.4814L17.1517 15.5452L17.1838 15.5983C17.1944 15.6089 17.6113 16.4063 18.0388 17.8522C18.135 18.1393 18.3701 17.7672 18.3701 17.6715C18.3701 17.2144 18.3915 15.9598 18.7122 14.5777C18.8405 16.5764 19.6207 17.5227 19.8559 17.7565C19.6207 18.1818 19.3428 18.5646 19.0435 18.8729C19.0008 18.9154 19.0008 18.9792 19.0435 19.0217C19.0649 19.0429 19.0863 19.0536 19.1183 19.0536C19.1504 19.0536 19.1718 19.0429 19.1931 19.0217C19.3321 18.8729 19.4711 18.7134 19.5993 18.5326C19.7276 18.5539 19.9841 18.6071 20.3475 18.6071C20.7964 18.6071 21.395 18.5326 22.0042 18.2562C21.3201 19.2662 20.3261 20.1487 19.0328 20.8928C19.0222 20.8928 18.7656 20.9673 18.787 21.6583C18.8084 21.8603 18.8298 22.073 18.8511 22.2856C18.9259 23.1574 18.958 24.1568 18.9153 25.2518C18.9366 25.5601 19.2466 25.4219 19.2787 25.3263C19.3855 25.0179 19.6635 24.3056 20.1658 23.5082C19.9092 24.9329 20.1765 25.8684 20.2727 26.1555C20.0161 26.3256 19.7596 26.4745 19.5031 26.602C19.4497 26.6339 19.4283 26.6977 19.4603 26.7402C19.4818 26.7721 19.5138 26.7934 19.5566 26.7934C19.5779 26.7934 19.5886 26.7934 19.61 26.7828C20.3796 26.3894 21.1384 25.8366 21.8546 25.2093C22.0149 25.3369 22.4531 25.6027 23.2868 25.6027C23.5219 25.6027 23.7891 25.5814 24.0884 25.5283C23.0944 26.7402 21.4591 28.0585 18.9901 28.2074C18.9901 28.2074 18.7336 28.1649 18.6053 28.6007C18.5946 28.6433 18.5946 28.6858 18.5839 28.739C18.4343 29.7065 18.2205 30.7165 17.932 31.7796C17.932 31.7902 17.932 31.7902 17.932 31.7902C17.932 31.8115 17.9212 31.8328 17.9105 31.854C17.9105 31.854 17.9105 31.854 17.9105 31.8647C17.8037 32.4069 18.1564 32.2474 18.1777 32.2049C18.3488 31.9497 18.9687 31.046 20.0696 30.1211C19.6848 31.2799 19.952 32.4387 20.0055 32.6301C19.4176 32.8853 18.819 33.0979 18.2205 33.2361C18.1671 33.2468 18.1243 33.3106 18.1457 33.3637C18.1564 33.4169 18.1992 33.4488 18.2526 33.4488C18.2633 33.4488 18.274 33.4488 18.274 33.4488C18.4984 33.3956 18.7336 33.3318 18.958 33.2574C19.0328 33.5763 19.3107 34.4162 20.1872 34.7458C19.3535 34.8734 18.4129 34.8947 17.3334 34.7884C17.3334 34.7884 17.0769 34.7671 16.9379 34.9372C16.3928 36.4043 15.7195 37.9353 14.8751 39.5194L14.6506 39.9978C14.6186 40.0723 14.5758 40.1467 14.5331 40.2423C14.501 40.3061 14.5117 40.3806 14.5438 40.4337C14.7147 40.742 16.179 41.146 22.7737 42.0497C23.0837 42.0922 23.3295 42.1241 23.4578 42.1454C23.554 42.1561 23.6502 42.1667 23.7464 42.1667C24.035 42.1667 24.2701 42.0922 24.4625 41.9434C24.7831 41.6882 24.8045 41.2949 24.8045 41.2949C24.8152 40.9334 24.9541 40.5719 25.2 40.2955C25.3389 40.136 25.4993 40.0191 25.6596 39.9766C25.9054 39.9021 26.1833 39.9659 26.4612 40.0403L26.4933 40.051C27.2842 40.2423 28.1393 40.3593 29.1867 40.4231H30.1593C30.6082 40.4231 31.0999 40.3274 31.6878 40.1254C32.2542 39.934 32.7032 39.6257 32.9918 39.243C33.2376 38.9134 33.3979 38.4988 33.4727 37.9991C33.5368 37.5632 33.5582 37.1273 33.5368 36.702C33.5262 36.4894 33.462 36.2874 33.3979 36.096C33.3445 35.9366 33.291 35.7771 33.2696 35.6282C33.259 35.5219 33.2696 35.4262 33.3017 35.3518C33.3338 35.288 33.3872 35.2242 33.462 35.1604C33.5155 35.1073 33.5796 35.0435 33.6223 34.9797C33.6972 34.8734 33.804 34.7884 33.9109 34.6927C33.9537 34.6608 33.9964 34.6289 34.0285 34.5864C34.2529 34.3843 34.3812 34.1823 34.4026 33.9803C34.424 33.8209 34.3812 33.6826 34.3385 33.5657C34.2209 33.1936 33.9964 32.8321 33.7186 32.5344C33.8575 32.3963 33.9537 32.2261 34.0392 32.056C34.1033 31.9284 34.1781 31.8115 34.253 31.7052C34.3385 31.5989 34.3812 31.4713 34.3919 31.3224C34.4026 31.1842 34.3812 31.0567 34.3599 30.961C34.2957 30.6633 33.8896 29.7171 33.804 29.5363C33.7399 29.4194 33.6544 29.1961 33.7506 29.0473C33.8361 28.9091 34.0392 28.8666 34.1995 28.8772C34.3064 28.8878 34.4026 28.9091 34.5095 28.9303C34.627 28.9516 34.7446 28.9835 34.8729 28.9941C35.279 29.026 35.6959 28.8559 35.9738 28.5582C36.2731 28.2818 36.412 27.8672 36.3479 27.4632ZM9.99056 33.4169C9.06064 32.8321 8.38731 32.173 7.88497 31.567C7.9277 31.567 7.95978 31.567 8.00251 31.567C8.68655 31.567 9.22096 31.248 9.4027 31.1311C10.1081 31.6414 10.9311 32.1836 11.8396 32.6939C11.6365 32.9066 10.9525 33.5232 9.99056 33.4169ZM10.3326 28.4626C11.4334 29.7915 10.9097 31.3969 10.7494 31.8009C9.97985 31.3012 9.28511 30.8015 8.70796 30.355C8.81485 30.0573 9.14615 29.0154 8.62245 28.335C9.22096 28.3244 9.79816 28.3669 10.3326 28.4626ZM8.33387 28.335C8.91102 28.8666 8.65452 29.8553 8.52622 30.2168C7.45744 29.3769 6.80543 28.739 6.74128 28.6752C7.0299 28.4732 7.56432 28.3669 8.33387 28.335ZM6.59166 28.824C6.6344 28.8666 7.33985 29.5576 8.4942 30.4613C8.50485 30.4719 8.51556 30.4825 8.53693 30.4932C8.7507 30.6527 8.97517 30.8334 9.2103 31.0035C8.96446 31.1524 8.3766 31.4394 7.70323 31.3331C7.38258 30.9185 7.13679 30.5357 6.95505 30.238L6.86958 30.1105C6.51685 29.5576 6.40997 29.143 6.55959 28.8772C6.5703 28.8559 6.58096 28.8347 6.59166 28.824ZM13.2505 33.1936C12.4275 32.8003 11.6472 32.3643 10.9418 31.9178C11.0808 31.567 11.6579 29.951 10.6532 28.5263C11.6258 28.739 12.5023 29.1217 13.2505 29.6852C13.7101 31.3331 13.368 32.7896 13.2505 33.1936ZM14.501 27.814C14.4796 27.814 14.4582 27.8247 14.4475 27.8353C13.3253 27.5376 12.4702 27.0166 11.8182 26.4C12.0106 26.4426 12.203 26.4532 12.374 26.4532C13.3573 26.4532 14.0842 25.9535 14.2872 25.794C14.6934 26.0279 15.1209 26.2512 15.5592 26.4426C15.5698 26.4426 15.5698 26.4532 15.5805 26.4532C15.5805 26.4532 15.5805 26.4532 15.5912 26.4532C15.9012 26.5808 16.2218 26.6977 16.5531 26.7934C16.3287 27.0805 15.6767 27.8034 14.501 27.814ZM12.2992 21.8923C12.9619 22.9448 12.7802 24.0398 12.684 24.4332C11.0808 23.1574 10.044 21.8603 10.0226 21.839C10.215 21.7009 10.5677 21.669 11.1556 21.7221C11.551 21.7434 11.9251 21.8072 12.2992 21.8923ZM9.88368 21.9986C10.0119 22.158 10.6104 22.8703 11.5403 23.7315C11.1983 23.7847 10.4929 23.8378 10.0226 23.4125C9.97985 23.285 9.94778 23.1574 9.92641 23.0511C9.79816 22.5514 9.78746 22.2112 9.88368 21.9986ZM11.1021 23.976C11.3907 23.976 11.6258 23.9335 11.7327 23.9016C12.0213 24.1568 12.3313 24.4225 12.6626 24.6777C12.6733 24.699 12.6947 24.7096 12.716 24.7202C13.1436 25.0498 13.6032 25.3794 14.0949 25.6771C13.7635 25.911 12.7481 26.5063 11.5297 26.1023C10.8136 25.3263 10.386 24.4544 10.1402 23.7421C10.4395 23.9228 10.8028 23.976 11.1021 23.976ZM15.5377 26.198C14.5544 25.7621 13.6566 25.1774 12.8764 24.582C12.9619 24.2737 13.2291 23.1361 12.5985 21.9666C13.4856 22.2112 14.2872 22.6046 14.9927 23.0511C15.7622 24.5395 15.6126 25.8153 15.5377 26.198ZM12.513 20.3825C12.5023 20.3825 12.4809 20.3825 12.4702 20.3825C11.4655 19.8829 10.8884 19.1599 10.4181 18.522C10.5036 18.5326 10.5891 18.5433 10.6853 18.5433C11.0808 18.5433 11.4976 18.437 11.6152 18.4051C12.1603 18.6496 12.684 18.8622 13.1756 19.0429C13.1864 19.0536 13.197 19.0536 13.2077 19.0536C13.7528 19.2449 14.2552 19.4045 14.7147 19.532C14.4369 19.7872 13.6887 20.3825 12.513 20.3825ZM11.8396 16.3213C12.9084 16.704 13.0901 18.2881 13.1222 18.7878C12.1175 18.4157 10.9739 17.9054 9.76609 17.2144C9.75538 17.2144 9.75538 17.2144 9.74472 17.2037C9.89434 16.906 10.6212 16.6402 11.8396 16.3213ZM11.2945 18.2562C10.9845 18.32 10.5143 18.3732 10.2471 18.2562C10.2364 18.2562 10.2257 18.2456 10.215 18.2456C10.1402 18.1393 10.0654 18.033 9.99056 17.9373C9.83024 17.7353 9.73401 17.5652 9.71265 17.427C10.2578 17.7459 10.7921 18.0223 11.2945 18.2562ZM16.0081 19.6277C15.3133 19.4895 14.3941 19.2556 13.3253 18.8729C13.3146 18.4901 13.2077 16.8422 12.1496 16.2362C12.2458 16.215 12.3419 16.1831 12.4488 16.1618C13.336 15.9385 14.191 16.1831 14.9392 16.6083C15.7943 17.9054 15.976 19.2131 16.0081 19.6277ZM11.7755 12.4726C11.0701 11.5583 10.5998 10.5483 10.3753 9.43199C10.9525 9.71908 11.5617 9.80411 12.0534 9.80411C12.4916 9.80411 12.8336 9.74035 12.9726 9.70842C13.7101 10.5271 14.4796 11.4733 15.153 12.462C14.6827 12.6002 13.0581 12.983 11.7755 12.4726ZM14.2872 7.98613V7.99675C14.7468 9.00676 14.469 10.4633 14.33 10.9842C13.9238 10.4739 13.507 9.98484 13.1008 9.52768C13.0901 9.50641 13.0795 9.4958 13.0688 9.48519C11.7755 8.06056 10.6425 7.05055 10.4715 6.9017C10.7067 6.77412 11.0593 6.83788 11.3266 6.91231C11.9251 7.1037 13.1543 7.45455 14.2872 7.98613ZM10.3219 7.06116C10.3647 7.09304 11.4976 8.08178 12.8123 9.51707C12.374 9.5915 11.2625 9.6978 10.3326 9.15561C10.2578 8.69845 10.2257 8.23063 10.2364 7.74159V7.72032V7.69905C10.2257 7.70971 10.1509 7.31631 10.3219 7.06116ZM16.0829 13.5784C15.8798 13.2168 15.666 12.8448 15.4309 12.4939C15.4202 12.4726 15.4202 12.462 15.4095 12.4514C15.1316 12.0261 14.8216 11.6115 14.5117 11.2075C14.5972 10.9098 15.0034 9.33634 14.5758 8.13494C15.4843 8.59209 16.2966 9.17683 16.6173 9.87854L16.7135 10.0912C16.7562 10.1868 16.799 10.2932 16.8524 10.3888C16.8845 11.8879 16.3073 13.1424 16.0829 13.5784ZM18.9473 13.876C19.1718 13.1318 19.5031 12.3982 19.952 11.7603C20.1337 12.7916 21.085 13.3444 21.3736 13.4933C21.0957 14.8329 20.6574 16.3745 20.0055 17.5971C19.7169 17.2887 18.8939 16.1725 18.9473 13.876ZM22.0576 10.4739C22.2714 10.5909 22.4424 10.8779 22.6027 11.367L22.6348 11.452C22.9448 12.3663 23.1265 13.2488 23.1692 14.078C22.4317 15.205 21.4698 15.4708 21.0957 15.5239C21.8011 13.2168 22.0255 10.8247 22.0576 10.4739ZM21.8439 10.4101C21.8439 10.442 21.737 11.6859 21.4163 13.27C21.085 13.0893 20.1979 12.5045 20.1444 11.5158C20.3368 11.2713 20.5506 11.048 20.7964 10.846C21.2453 10.5164 21.5874 10.3676 21.8546 10.3995C21.8439 10.4101 21.8439 10.4101 21.8439 10.4101ZM19.781 18.3838C20.294 17.6396 20.6895 16.704 21.0102 15.7472C21.3094 15.7153 22.3248 15.5452 23.1692 14.4289C23.1906 15.7153 22.8806 16.8954 22.2714 17.9373C21.2346 18.5433 20.1765 18.4476 19.781 18.3838ZM20.5399 23.0617C21.0529 22.3388 21.737 21.5946 22.6348 21.0311C22.1004 22.4451 22.7524 23.6358 22.9554 23.9441C22.2072 24.7202 21.3842 25.4751 20.5185 26.0704C20.4009 25.7196 20.1444 24.6352 20.5399 23.0617ZM26.0871 20.4038C26.1619 20.6377 26.194 21.1374 25.8733 22.1899C25.4885 22.477 24.9221 22.3813 24.6656 22.3175C25.4244 21.3713 25.9482 20.6164 26.0871 20.4038ZM25.9374 20.2337C25.9161 20.2656 24.7511 22.0411 23.0944 23.7847C22.8806 23.4338 22.3035 22.2962 22.8806 20.9779C22.8913 20.946 22.8913 20.9141 22.8699 20.8822C23.6715 20.4357 24.6121 20.138 25.7344 20.1168C25.8199 20.1274 25.8947 20.1487 25.9482 20.2018C25.9589 20.2231 25.9482 20.2231 25.9374 20.2337ZM22.0576 25.1136C22.4317 24.7734 22.7951 24.4119 23.1478 24.0504C23.1478 24.0504 23.1478 24.0504 23.1585 24.0504C23.1692 24.0398 23.1799 24.0292 23.1906 24.0185C23.6822 23.4976 24.1311 22.9766 24.5266 22.4982C24.6442 22.5301 24.9007 22.6046 25.2 22.6046C25.3924 22.6046 25.5954 22.5726 25.7878 22.4982C25.7023 22.764 25.5954 23.0511 25.4565 23.3806C25.4351 23.4338 25.4244 23.4657 25.4244 23.4763C25.4137 23.4976 25.0931 24.3481 24.3449 25.3369C22.9661 25.6133 22.2821 25.2624 22.0576 25.1136ZM22.8379 28.4944C22.1324 30.0148 22.4531 31.0141 22.5707 31.2799C21.8546 31.7584 21.0636 32.2049 20.2513 32.577C20.1872 32.3006 19.9307 31.0141 20.4544 29.8872C21.1064 29.3769 21.8973 28.8772 22.8379 28.4944ZM24.2059 32.8747C22.5386 33.0448 21.8118 32.2474 21.6728 32.0773C22.4317 31.6414 23.1371 31.163 23.7678 30.6952C23.8426 30.7271 24.1525 30.844 24.6335 30.844C24.9541 30.844 25.3496 30.7909 25.8199 30.6314C25.4779 31.2905 24.9862 32.1198 24.2059 32.8747ZM26.055 30.1529C26.023 30.2168 25.9909 30.2805 25.9589 30.355C24.9541 30.759 24.2487 30.6314 23.9708 30.5463C25.3389 29.5044 26.2795 28.5689 26.4291 28.42C26.6002 28.7496 26.5253 29.2387 26.2367 29.7809C26.1833 29.8766 26.1192 30.0041 26.055 30.1529ZM26.3009 28.2499C26.2902 28.2605 25.6702 28.8878 24.6976 29.6958L24.7724 27.9204C25.5099 27.8353 26.0337 27.9416 26.3009 28.2499C26.3009 28.2393 26.3009 28.2393 26.3009 28.2499ZM24.6442 29.7277C24.1098 30.1742 23.4578 30.6633 22.7417 31.1524C22.6241 30.8547 22.3676 29.8553 23.1157 28.3775C23.5967 28.1968 24.0991 28.0479 24.6442 27.931C24.6549 27.931 24.6763 27.931 24.6869 27.931C24.3128 28.5689 24.548 29.43 24.6442 29.7277ZM19.2038 33.2149C19.9841 32.9491 20.7537 32.5876 21.4805 32.1836C21.5766 32.3218 22.2393 33.1192 23.7464 33.1192C23.8105 33.1192 23.8853 33.1192 23.9494 33.1086C23.1799 33.789 22.1431 34.3737 20.7537 34.6714C19.5779 34.5545 19.268 33.5232 19.2038 33.2149ZM35.76 28.3669C35.5462 28.5901 35.2256 28.7177 34.9156 28.6964C34.8088 28.6858 34.7125 28.6646 34.6057 28.6433C34.4881 28.622 34.3705 28.5901 34.253 28.5795C33.9964 28.5582 33.6651 28.6327 33.5048 28.8984C33.3765 29.1111 33.3979 29.3875 33.5475 29.6852C33.6544 29.8978 34.0285 30.7909 34.0712 31.0248C34.082 31.0992 34.1033 31.2055 34.0927 31.3012C34.0927 31.365 34.0712 31.4501 34.0178 31.5138C33.9216 31.6414 33.8468 31.769 33.772 31.9072C33.6651 32.0986 33.5689 32.2899 33.3979 32.3963L33.2376 32.5132L33.3765 32.6407C33.6758 32.9172 33.9109 33.2786 34.0392 33.6614C34.0712 33.7465 34.0927 33.8528 34.082 33.9485C34.0712 34.076 33.9858 34.2036 33.8147 34.3525C33.7827 34.3843 33.7399 34.4162 33.6972 34.4481C33.5689 34.5545 33.4407 34.6608 33.3445 34.799C33.3124 34.8415 33.2696 34.8947 33.2162 34.9372C33.1307 35.0222 33.0452 35.1073 32.9918 35.2455C32.9383 35.3731 32.9276 35.5113 32.9383 35.6707C32.9597 35.8621 33.0238 36.0429 33.0773 36.213C33.1414 36.3937 33.1948 36.5638 33.2055 36.7339C33.2269 37.1379 33.2055 37.5526 33.1521 37.9672C33.0879 38.4137 32.949 38.7752 32.7352 39.0622C32.4894 39.3918 32.0832 39.6576 31.5809 39.8383C31.0251 40.0297 30.5762 40.1148 30.1593 40.1148H29.1974C28.182 40.051 27.3376 39.934 26.5681 39.7533L26.536 39.7427C26.2367 39.6683 25.8947 39.5938 25.5741 39.6895C25.3496 39.7533 25.1465 39.8915 24.9648 40.1041C24.6763 40.4337 24.4946 41.3055 24.4946 41.3055C24.4946 41.3374 24.4625 41.5713 24.2701 41.7201C24.0991 41.8584 23.8533 41.9009 23.5219 41.8477C23.383 41.8265 23.1478 41.7945 22.8379 41.752C17.9747 41.0822 15.3026 40.6038 14.8751 40.3168C15.0782 39.8703 15.153 39.7107 15.153 39.7107C15.9973 38.116 16.6814 36.5851 17.2372 35.1073C17.7288 35.1604 18.1885 35.1817 18.6267 35.1817C23.9387 35.1817 25.6382 31.6627 26.3223 30.2699C26.3971 30.1317 26.4505 30.0041 26.5039 29.9085C26.878 29.2068 26.9208 28.5582 26.6215 28.1224C26.3864 27.7928 25.852 27.4313 24.5907 27.6014C22.902 27.9416 21.5446 28.6539 20.4971 29.4194C20.4651 29.4194 20.4223 29.4406 20.4009 29.4726C20.3902 29.4832 20.3902 29.4938 20.3796 29.5044C19.4497 30.2062 18.787 30.9291 18.3809 31.4394C18.6267 30.4294 18.819 29.4726 18.958 28.5476C23.9067 28.3031 25.6702 23.5827 25.6917 23.5401C25.6917 23.5295 25.7023 23.5082 25.7237 23.4657C26.2047 22.2856 26.6963 20.744 26.2902 20.0955C26.1726 19.9041 25.9802 19.7978 25.7451 19.7872C23.6502 19.8085 21.8118 20.7972 20.433 22.6258C19.8986 23.3381 19.5352 24.0398 19.3 24.5607C19.3107 23.7315 19.268 22.966 19.2146 22.2856C19.1825 21.9347 19.1504 21.5946 19.1077 21.265C21.6515 19.8403 23.1051 17.9054 23.4257 15.5133C23.6822 13.589 23.1265 11.9411 22.9234 11.3244L22.902 11.25C22.7524 10.7929 22.5172 10.2507 22.0469 10.1018C21.6622 9.98484 21.2026 10.1337 20.5933 10.5802C18.5946 12.2494 18.1777 15.3219 18.1029 16.8954C17.8357 16.1512 17.6113 15.6834 17.5365 15.5239C18.2953 12.866 17.6861 11.452 17.0127 9.98484V9.97423C17.0021 9.96357 17.0021 9.94235 16.9914 9.93169L16.8952 9.72969C16.1042 7.96486 12.5771 6.95485 11.4228 6.61466C10.8563 6.44454 10.4288 6.48708 10.1615 6.73158C9.79816 7.06116 9.88368 7.62462 9.89434 7.74159C9.8516 11.0161 11.6365 13.0999 13.1543 14.2694C14.6186 15.4069 16.0722 15.9173 16.4035 16.0236C16.7455 16.7147 17.0234 17.4164 17.2586 18.1287C16.3714 17.0974 14.4903 15.3113 12.374 15.8322C10.4715 16.3 9.5844 16.5977 9.4027 17.1293C9.28511 17.4801 9.50959 17.8416 9.73401 18.118C9.83024 18.235 9.92641 18.3732 10.0333 18.5114C10.7708 19.532 11.7862 20.9248 14.4903 21.265C15.2278 21.3607 15.8157 21.3926 16.2966 21.3926C17.1944 21.3926 17.6754 21.2756 17.932 21.1693C18.1136 22.5833 18.1243 23.9867 18.0281 25.3369C17.2372 24.3588 14.7041 21.6371 11.1876 21.3926C10.5998 21.3394 10.0119 21.3394 9.71265 21.6902C9.47751 21.9666 9.44544 22.4026 9.62713 23.1149C9.81953 23.8803 10.3112 25.3263 11.4976 26.5063C12.7695 27.7715 14.469 28.3987 16.5745 28.3987C16.9166 28.3987 17.2693 28.3775 17.6327 28.3456C17.4082 29.4938 17.1303 30.5782 16.831 31.5564C16.628 32.2049 16.4142 32.8428 16.2005 33.4381C16.0294 32.864 15.666 31.8966 14.9499 30.9291C13.9345 29.5576 12.0106 27.931 8.53693 28.016C7.26504 28.0267 6.54893 28.2499 6.29238 28.7283C6.08932 29.1111 6.1962 29.6214 6.62374 30.2912L6.69855 30.4188C7.57498 31.8115 9.62713 35.0329 15.4523 35.3199C14.3834 37.8183 13.3787 39.4237 13.368 39.445L13.2825 39.5938C13.2612 39.6257 13.0795 39.8277 11.4441 39.4769C10.4395 39.2643 9.30648 38.9347 8.6331 38.7327C8.40868 38.6689 8.22699 38.6157 8.13076 38.5838C6.95505 38.2968 6.65581 37.9672 6.59166 37.7971C6.53822 37.6802 6.58096 37.5951 6.59166 37.5738C7.45744 36.3193 7.4788 34.48 6.6451 32.6833C6.1962 31.7052 5.56561 30.8121 4.95634 29.951C4.62503 29.4832 4.2723 28.9941 3.96236 28.4944C1.32234 24.2844 0.670354 18.5646 2.10258 12.3982C2.46598 10.8567 3.03246 8.86852 4.22957 7.24189C6.0038 4.82853 8.73999 3.68033 10.728 3.13811C13.2825 2.43643 15.976 2.33011 18.5733 2.21317C19.7917 2.16001 21.0529 2.10685 22.25 2.4258C23.5433 2.77664 24.5694 3.57401 24.9755 4.56275C25.3069 5.37074 25.1679 6.38072 24.6442 7.03989L24.548 7.18874C27.1987 8.80476 29.4646 11.3457 30.651 14.195C30.8862 14.7478 31.0892 15.3219 31.2923 15.8854C31.3992 16.1937 31.5168 16.5127 31.6343 16.821C31.9122 17.5545 32.2649 18.4795 32.0939 19.33C32.0512 19.5108 31.9977 19.6915 31.9336 19.8722C31.8695 20.053 31.816 20.2337 31.7733 20.4357C31.5595 21.467 32.8207 23.083 32.8742 23.1468C32.8955 23.168 34.6057 25.4113 35.4821 26.5063C35.7173 26.804 35.9951 27.1442 36.0486 27.527C36.0807 27.814 35.9738 28.1436 35.76 28.3669Z" fill="var(--fill-0, #3D3D39)"/>
<path d="M26.3009 28.2499C26.2902 28.2605 25.6702 28.8878 24.6976 29.6958L24.7724 27.9204C25.5099 27.8353 26.0337 27.9416 26.3009 28.2499ZM26.3009 28.2499C26.3009 28.2393 26.3009 28.2393 26.3009 28.2499ZM36.3479 27.4632C36.2837 26.9954 35.9631 26.602 35.7173 26.2831C34.8408 25.188 33.1307 22.9448 33.1093 22.9235C32.7673 22.4876 31.9122 21.2012 32.0619 20.4676C32.0939 20.2975 32.1581 20.1168 32.2115 19.9466C32.2756 19.7553 32.3397 19.5639 32.3825 19.3619C32.5749 18.4157 32.2115 17.4482 31.9122 16.6721C31.7947 16.3638 31.6771 16.0555 31.5702 15.7472C31.3671 15.1837 31.1534 14.599 30.9182 14.0461C29.7211 11.1969 27.6049 8.73033 24.9648 7.07182C25.4779 6.32757 25.5954 5.28569 25.2427 4.42453C24.7938 3.34011 23.7036 2.46832 22.3035 2.09622C21.0636 1.76664 19.781 1.8198 18.5305 1.87296C15.9118 1.9899 13.2077 2.10685 10.6104 2.80854C8.569 3.36138 5.75796 4.54148 3.93029 7.02927C2.69044 8.70906 2.11327 10.7291 1.74987 12.3025C0.296263 18.5539 0.969623 24.3588 3.65237 28.6433C3.96236 29.143 4.31504 29.6426 4.6571 30.1105C5.25562 30.961 5.87555 31.8434 6.31375 32.7896C7.094 34.4907 7.08335 36.2023 6.28172 37.3718C6.28172 37.3718 6.2603 37.4037 6.24965 37.4356C6.20686 37.5206 6.16413 37.6802 6.24965 37.8822C6.40997 38.2968 7.00849 38.637 8.01322 38.8709C8.1094 38.8921 8.28043 38.9453 8.50485 39.0091C10.7601 39.6683 12.1282 39.9766 12.8657 39.9766C13.2184 39.9766 13.4536 39.8383 13.5497 39.7001L13.7208 39.4131L13.7421 39.3706L13.7849 39.2855L13.8704 39.1367C14.2231 38.5307 14.8751 37.3293 15.5698 35.7346C15.5805 35.7027 15.5912 35.6708 15.6019 35.6495C15.8798 34.9904 15.5377 34.9797 15.5377 34.9797C13.2718 34.884 11.5938 34.3312 10.3219 33.6295C11.2411 33.5657 11.8503 32.9491 11.9893 32.8003C12.3847 33.0129 12.7909 33.2255 13.2184 33.4275C13.2291 33.4275 13.2291 33.4381 13.2398 33.4381H13.2505C14.0093 33.789 14.8003 34.1079 15.6233 34.3631C15.634 34.3631 15.6446 34.3631 15.6553 34.3631C15.6981 34.3631 15.7408 34.3312 15.7622 34.2887C15.7836 34.2355 15.7515 34.1717 15.6874 34.1611C14.8965 33.9166 14.1376 33.6189 13.4108 33.2786C13.5284 32.9172 13.8811 31.5351 13.4963 29.8872C13.9131 30.238 14.2979 30.642 14.6399 31.0992C15.5912 32.3856 15.9012 33.7039 15.9546 33.9591C15.9546 33.9591 16.1577 34.3205 16.3928 33.7146C16.4035 33.6933 16.4035 33.672 16.4142 33.6508C16.6494 33.0235 16.8845 32.3537 17.0983 31.652C17.3975 30.6739 17.6754 29.6001 17.8999 28.4519C17.8999 28.4413 17.9105 28.42 17.9105 28.4094C17.9854 27.9629 17.654 28.0267 17.654 28.0267C16.66 28.1224 15.7943 28.0904 15.0354 27.9629C16.0508 27.7608 16.5852 27.0805 16.7349 26.8572C16.9486 26.9103 17.1731 26.9635 17.3975 27.006C17.4082 27.006 17.4082 27.006 17.4189 27.006C17.4723 27.006 17.5151 26.9741 17.5258 26.921C17.5365 26.8678 17.4937 26.804 17.4403 26.7934C16.8418 26.6871 16.2646 26.5169 15.7088 26.2831C15.7836 25.9429 15.9653 24.7521 15.3026 23.2743C16.799 24.3162 17.7503 25.5283 17.9533 25.8046C17.9533 25.8046 18.2098 26.2406 18.2633 25.9641C18.2633 25.9535 18.2633 25.9429 18.2633 25.9322C18.4129 24.38 18.4236 22.7534 18.2205 21.1161C18.1777 20.7972 17.8357 20.8504 17.8251 20.861C17.5685 20.9779 16.7349 21.2331 14.501 20.9567C13.8704 20.8822 13.336 20.744 12.8764 20.5633C14.0521 20.4357 14.7468 19.7659 14.9179 19.5852C15.3454 19.7021 15.7301 19.7872 16.0508 19.851C16.0615 19.8616 16.0829 19.8616 16.0936 19.8616C16.9166 20.0211 17.3975 20.0423 17.4082 20.0423C17.4616 20.0423 17.5151 19.9998 17.5151 19.936C17.5151 19.8722 17.4723 19.8297 17.4082 19.8297C17.3975 19.8297 16.9486 19.8085 16.1897 19.6596C16.1684 19.33 16.0401 18.1287 15.3026 16.8422C16.3821 17.5652 17.1838 18.5858 17.4082 18.8941C17.4296 18.9154 17.8037 19.0855 17.7396 18.7878C17.7396 18.7878 17.7396 18.7878 17.7396 18.7772C17.7396 18.7666 17.7396 18.7559 17.7288 18.7453C17.4616 17.7565 17.0983 16.7784 16.6173 15.8216L16.5852 15.7578L16.5211 15.7365C16.5104 15.7365 14.8965 15.2475 13.3146 14.0142C12.8123 13.6208 12.374 13.2062 11.9893 12.7597C12.4061 12.8766 12.8443 12.9192 13.2505 12.9192C14.1697 12.9192 14.982 12.6959 15.2385 12.6215C15.8157 13.5039 16.2966 14.4076 16.5852 15.29C16.5959 15.3326 16.6386 15.3644 16.6921 15.3644C16.7028 15.3644 16.7135 15.3644 16.7242 15.3644C16.7776 15.3432 16.8097 15.29 16.7883 15.2262C16.628 14.7478 16.4249 14.2587 16.1684 13.7697C16.318 13.5145 16.9379 12.3557 17.0127 10.8354C17.5151 12.058 17.8037 13.3232 17.1731 15.4814L17.1517 15.5452L17.1838 15.5983C17.1944 15.6089 17.6113 16.4063 18.0388 17.8522C18.135 18.1393 18.3701 17.7672 18.3701 17.6715C18.3701 17.2144 18.3915 15.9598 18.7122 14.5777C18.8405 16.5764 19.6207 17.5227 19.8559 17.7565C19.6207 18.1818 19.3428 18.5646 19.0435 18.8729C19.0008 18.9154 19.0008 18.9792 19.0435 19.0217C19.0649 19.0429 19.0863 19.0536 19.1183 19.0536C19.1504 19.0536 19.1718 19.0429 19.1931 19.0217C19.3321 18.8729 19.4711 18.7134 19.5993 18.5326C19.7276 18.5539 19.9841 18.6071 20.3475 18.6071C20.7964 18.6071 21.395 18.5326 22.0042 18.2562C21.3201 19.2662 20.3261 20.1487 19.0328 20.8928C19.0222 20.8928 18.7656 20.9673 18.787 21.6583C18.8084 21.8603 18.8298 22.073 18.8511 22.2856C18.9259 23.1574 18.958 24.1568 18.9153 25.2518C18.9366 25.5601 19.2466 25.4219 19.2787 25.3263C19.3855 25.0179 19.6635 24.3056 20.1658 23.5082C19.9092 24.9329 20.1765 25.8684 20.2727 26.1555C20.0161 26.3256 19.7596 26.4745 19.5031 26.602C19.4497 26.6339 19.4283 26.6977 19.4603 26.7402C19.4818 26.7721 19.5138 26.7934 19.5566 26.7934C19.5779 26.7934 19.5886 26.7934 19.61 26.7828C20.3796 26.3894 21.1384 25.8366 21.8546 25.2093C22.0149 25.3369 22.4531 25.6027 23.2868 25.6027C23.5219 25.6027 23.7891 25.5814 24.0884 25.5283C23.0944 26.7402 21.4591 28.0585 18.9901 28.2074C18.9901 28.2074 18.7336 28.1649 18.6053 28.6007C18.5946 28.6433 18.5946 28.6858 18.5839 28.739C18.4343 29.7065 18.2205 30.7165 17.932 31.7796C17.932 31.7902 17.932 31.7902 17.932 31.7902C17.932 31.8115 17.9212 31.8328 17.9105 31.854C17.9105 31.854 17.9105 31.854 17.9105 31.8647C17.8037 32.4069 18.1564 32.2474 18.1777 32.2049C18.3488 31.9497 18.9687 31.046 20.0696 30.1211C19.6848 31.2799 19.952 32.4387 20.0055 32.6301C19.4176 32.8853 18.819 33.0979 18.2205 33.2361C18.1671 33.2468 18.1243 33.3106 18.1457 33.3637C18.1564 33.4169 18.1992 33.4488 18.2526 33.4488C18.2633 33.4488 18.274 33.4488 18.274 33.4488C18.4984 33.3956 18.7336 33.3318 18.958 33.2574C19.0328 33.5763 19.3107 34.4162 20.1872 34.7458C19.3535 34.8734 18.4129 34.8947 17.3334 34.7884C17.3334 34.7884 17.0769 34.7671 16.9379 34.9372C16.3928 36.4043 15.7195 37.9353 14.8751 39.5194L14.6506 39.9978C14.6186 40.0723 14.5758 40.1467 14.5331 40.2423C14.501 40.3061 14.5117 40.3806 14.5438 40.4337C14.7147 40.742 16.179 41.146 22.7737 42.0497C23.0837 42.0922 23.3295 42.1241 23.4578 42.1454C23.554 42.1561 23.6502 42.1667 23.7464 42.1667C24.035 42.1667 24.2701 42.0922 24.4625 41.9434C24.7831 41.6882 24.8045 41.2949 24.8045 41.2949C24.8152 40.9334 24.9541 40.5719 25.2 40.2955C25.3389 40.136 25.4993 40.0191 25.6596 39.9766C25.9054 39.9021 26.1833 39.9659 26.4612 40.0403L26.4933 40.051C27.2842 40.2423 28.1393 40.3593 29.1867 40.4231H30.1593C30.6082 40.4231 31.0999 40.3274 31.6878 40.1254C32.2542 39.934 32.7032 39.6257 32.9918 39.243C33.2376 38.9134 33.3979 38.4988 33.4727 37.9991C33.5368 37.5632 33.5582 37.1273 33.5368 36.702C33.5262 36.4894 33.462 36.2874 33.3979 36.096C33.3445 35.9366 33.291 35.7771 33.2696 35.6282C33.259 35.5219 33.2696 35.4262 33.3017 35.3518C33.3338 35.288 33.3872 35.2242 33.462 35.1604C33.5155 35.1073 33.5796 35.0435 33.6223 34.9797C33.6972 34.8734 33.804 34.7884 33.9109 34.6927C33.9537 34.6608 33.9964 34.6289 34.0285 34.5864C34.2529 34.3843 34.3812 34.1823 34.4026 33.9803C34.424 33.8209 34.3812 33.6826 34.3385 33.5657C34.2209 33.1936 33.9964 32.8321 33.7186 32.5344C33.8575 32.3963 33.9537 32.2261 34.0392 32.056C34.1033 31.9284 34.1781 31.8115 34.253 31.7052C34.3385 31.5989 34.3812 31.4713 34.3919 31.3224C34.4026 31.1842 34.3812 31.0567 34.3599 30.961C34.2957 30.6633 33.8896 29.7171 33.804 29.5363C33.7399 29.4194 33.6544 29.1961 33.7506 29.0473C33.8361 28.9091 34.0392 28.8666 34.1995 28.8772C34.3064 28.8878 34.4026 28.9091 34.5095 28.9303C34.627 28.9516 34.7446 28.9835 34.8729 28.9941C35.279 29.026 35.6959 28.8559 35.9738 28.5582C36.2731 28.2818 36.412 27.8672 36.3479 27.4632ZM9.99056 33.4169C9.06064 32.8321 8.38731 32.173 7.88497 31.567C7.9277 31.567 7.95978 31.567 8.00251 31.567C8.68655 31.567 9.22096 31.248 9.4027 31.1311C10.1081 31.6414 10.9311 32.1836 11.8396 32.6939C11.6365 32.9066 10.9525 33.5232 9.99056 33.4169ZM10.3326 28.4626C11.4334 29.7915 10.9097 31.3969 10.7494 31.8009C9.97985 31.3012 9.28511 30.8015 8.70796 30.355C8.81485 30.0573 9.14615 29.0154 8.62245 28.335C9.22096 28.3244 9.79816 28.3669 10.3326 28.4626ZM8.33387 28.335C8.91102 28.8666 8.65452 29.8553 8.52622 30.2168C7.45744 29.3769 6.80543 28.739 6.74128 28.6752C7.0299 28.4732 7.56432 28.3669 8.33387 28.335ZM6.59166 28.824C6.6344 28.8666 7.33985 29.5576 8.4942 30.4613C8.50485 30.4719 8.51556 30.4825 8.53693 30.4932C8.7507 30.6527 8.97517 30.8334 9.2103 31.0035C8.96446 31.1524 8.3766 31.4394 7.70323 31.3331C7.38258 30.9185 7.13679 30.5357 6.95505 30.238L6.86958 30.1105C6.51685 29.5576 6.40997 29.143 6.55959 28.8772C6.5703 28.8559 6.58096 28.8347 6.59166 28.824ZM13.2505 33.1936C12.4275 32.8003 11.6472 32.3643 10.9418 31.9178C11.0808 31.567 11.6579 29.951 10.6532 28.5263C11.6258 28.739 12.5023 29.1217 13.2505 29.6852C13.7101 31.3331 13.368 32.7896 13.2505 33.1936ZM14.501 27.814C14.4796 27.814 14.4582 27.8247 14.4475 27.8353C13.3253 27.5376 12.4702 27.0166 11.8182 26.4C12.0106 26.4426 12.203 26.4532 12.374 26.4532C13.3573 26.4532 14.0842 25.9535 14.2872 25.794C14.6934 26.0279 15.1209 26.2512 15.5592 26.4426C15.5698 26.4426 15.5698 26.4532 15.5805 26.4532C15.5805 26.4532 15.5805 26.4532 15.5912 26.4532C15.9012 26.5808 16.2218 26.6977 16.5531 26.7934C16.3287 27.0805 15.6767 27.8034 14.501 27.814ZM12.2992 21.8923C12.9619 22.9448 12.7802 24.0398 12.684 24.4332C11.0808 23.1574 10.044 21.8603 10.0226 21.839C10.215 21.7009 10.5677 21.669 11.1556 21.7221C11.551 21.7434 11.9251 21.8072 12.2992 21.8923ZM9.88368 21.9986C10.0119 22.158 10.6104 22.8703 11.5403 23.7315C11.1983 23.7847 10.4929 23.8378 10.0226 23.4125C9.97985 23.285 9.94778 23.1574 9.92641 23.0511C9.79816 22.5514 9.78746 22.2112 9.88368 21.9986ZM11.1021 23.976C11.3907 23.976 11.6258 23.9335 11.7327 23.9016C12.0213 24.1568 12.3313 24.4225 12.6626 24.6777C12.6733 24.699 12.6947 24.7096 12.716 24.7202C13.1436 25.0498 13.6032 25.3794 14.0949 25.6771C13.7635 25.911 12.7481 26.5063 11.5297 26.1023C10.8136 25.3263 10.386 24.4544 10.1402 23.7421C10.4395 23.9228 10.8028 23.976 11.1021 23.976ZM15.5377 26.198C14.5544 25.7621 13.6566 25.1774 12.8764 24.582C12.9619 24.2737 13.2291 23.1361 12.5985 21.9666C13.4856 22.2112 14.2872 22.6046 14.9927 23.0511C15.7622 24.5395 15.6126 25.8153 15.5377 26.198ZM12.513 20.3825C12.5023 20.3825 12.4809 20.3825 12.4702 20.3825C11.4655 19.8829 10.8884 19.1599 10.4181 18.522C10.5036 18.5326 10.5891 18.5433 10.6853 18.5433C11.0808 18.5433 11.4976 18.437 11.6152 18.4051C12.1603 18.6496 12.684 18.8622 13.1756 19.0429C13.1864 19.0536 13.197 19.0536 13.2077 19.0536C13.7528 19.2449 14.2552 19.4045 14.7147 19.532C14.4369 19.7872 13.6887 20.3825 12.513 20.3825ZM11.8396 16.3213C12.9084 16.704 13.0901 18.2881 13.1222 18.7878C12.1175 18.4157 10.9739 17.9054 9.76609 17.2144C9.75538 17.2144 9.75538 17.2144 9.74472 17.2037C9.89434 16.906 10.6212 16.6402 11.8396 16.3213ZM11.2945 18.2562C10.9845 18.32 10.5143 18.3732 10.2471 18.2562C10.2364 18.2562 10.2257 18.2456 10.215 18.2456C10.1402 18.1393 10.0654 18.033 9.99056 17.9373C9.83024 17.7353 9.73401 17.5652 9.71265 17.427C10.2578 17.7459 10.7921 18.0223 11.2945 18.2562ZM16.0081 19.6277C15.3133 19.4895 14.3941 19.2556 13.3253 18.8729C13.3146 18.4901 13.2077 16.8422 12.1496 16.2362C12.2458 16.215 12.3419 16.1831 12.4488 16.1618C13.336 15.9385 14.191 16.1831 14.9392 16.6083C15.7943 17.9054 15.976 19.2131 16.0081 19.6277ZM11.7755 12.4726C11.0701 11.5583 10.5998 10.5483 10.3753 9.43199C10.9525 9.71908 11.5617 9.80411 12.0534 9.80411C12.4916 9.80411 12.8336 9.74035 12.9726 9.70842C13.7101 10.5271 14.4796 11.4733 15.153 12.462C14.6827 12.6002 13.0581 12.983 11.7755 12.4726ZM14.2872 7.98613V7.99675C14.7468 9.00676 14.469 10.4633 14.33 10.9842C13.9238 10.4739 13.507 9.98484 13.1008 9.52768C13.0901 9.50641 13.0795 9.4958 13.0688 9.48519C11.7755 8.06056 10.6425 7.05055 10.4715 6.9017C10.7067 6.77412 11.0593 6.83788 11.3266 6.91231C11.9251 7.1037 13.1543 7.45455 14.2872 7.98613ZM10.3219 7.06116C10.3647 7.09304 11.4976 8.08178 12.8123 9.51707C12.374 9.5915 11.2625 9.6978 10.3326 9.15561C10.2578 8.69845 10.2257 8.23063 10.2364 7.74159V7.72032V7.69905C10.2257 7.70971 10.1509 7.31631 10.3219 7.06116ZM16.0829 13.5784C15.8798 13.2168 15.666 12.8448 15.4309 12.4939C15.4202 12.4726 15.4202 12.462 15.4095 12.4514C15.1316 12.0261 14.8216 11.6115 14.5117 11.2075C14.5972 10.9098 15.0034 9.33634 14.5758 8.13494C15.4843 8.59209 16.2966 9.17683 16.6173 9.87854L16.7135 10.0912C16.7562 10.1868 16.799 10.2932 16.8524 10.3888C16.8845 11.8879 16.3073 13.1424 16.0829 13.5784ZM18.9473 13.876C19.1718 13.1318 19.5031 12.3982 19.952 11.7603C20.1337 12.7916 21.085 13.3444 21.3736 13.4933C21.0957 14.8329 20.6574 16.3745 20.0055 17.5971C19.7169 17.2887 18.8939 16.1725 18.9473 13.876ZM22.0576 10.4739C22.2714 10.5909 22.4424 10.8779 22.6027 11.367L22.6348 11.452C22.9448 12.3663 23.1265 13.2488 23.1692 14.078C22.4317 15.205 21.4698 15.4708 21.0957 15.5239C21.8011 13.2168 22.0255 10.8247 22.0576 10.4739ZM21.8439 10.4101C21.8439 10.442 21.737 11.6859 21.4163 13.27C21.085 13.0893 20.1979 12.5045 20.1444 11.5158C20.3368 11.2713 20.5506 11.048 20.7964 10.846C21.2453 10.5164 21.5874 10.3676 21.8546 10.3995C21.8439 10.4101 21.8439 10.4101 21.8439 10.4101ZM19.781 18.3838C20.294 17.6396 20.6895 16.704 21.0102 15.7472C21.3094 15.7153 22.3248 15.5452 23.1692 14.4289C23.1906 15.7153 22.8806 16.8954 22.2714 17.9373C21.2346 18.5433 20.1765 18.4476 19.781 18.3838ZM20.5399 23.0617C21.0529 22.3388 21.737 21.5946 22.6348 21.0311C22.1004 22.4451 22.7524 23.6358 22.9554 23.9441C22.2072 24.7202 21.3842 25.4751 20.5185 26.0704C20.4009 25.7196 20.1444 24.6352 20.5399 23.0617ZM26.0871 20.4038C26.1619 20.6377 26.194 21.1374 25.8733 22.1899C25.4885 22.477 24.9221 22.3813 24.6656 22.3175C25.4244 21.3713 25.9482 20.6164 26.0871 20.4038ZM25.9374 20.2337C25.9161 20.2656 24.7511 22.0411 23.0944 23.7847C22.8806 23.4338 22.3035 22.2962 22.8806 20.9779C22.8913 20.946 22.8913 20.9141 22.8699 20.8822C23.6715 20.4357 24.6121 20.138 25.7344 20.1168C25.8199 20.1274 25.8947 20.1487 25.9482 20.2018C25.9589 20.2231 25.9482 20.2231 25.9374 20.2337ZM22.0576 25.1136C22.4317 24.7734 22.7951 24.4119 23.1478 24.0504C23.1478 24.0504 23.1478 24.0504 23.1585 24.0504C23.1692 24.0398 23.1799 24.0292 23.1906 24.0185C23.6822 23.4976 24.1311 22.9766 24.5266 22.4982C24.6442 22.5301 24.9007 22.6046 25.2 22.6046C25.3924 22.6046 25.5954 22.5726 25.7878 22.4982C25.7023 22.764 25.5954 23.0511 25.4565 23.3806C25.4351 23.4338 25.4244 23.4657 25.4244 23.4763C25.4137 23.4976 25.0931 24.3481 24.3449 25.3369C22.9661 25.6133 22.2821 25.2624 22.0576 25.1136ZM22.8379 28.4944C22.1324 30.0148 22.4531 31.0141 22.5707 31.2799C21.8546 31.7584 21.0636 32.2049 20.2513 32.577C20.1872 32.3006 19.9307 31.0141 20.4544 29.8872C21.1064 29.3769 21.8973 28.8772 22.8379 28.4944ZM24.2059 32.8747C22.5386 33.0448 21.8118 32.2474 21.6728 32.0773C22.4317 31.6414 23.1371 31.163 23.7678 30.6952C23.8426 30.7271 24.1525 30.844 24.6335 30.844C24.9541 30.844 25.3496 30.7909 25.8199 30.6314C25.4779 31.2905 24.9862 32.1198 24.2059 32.8747ZM26.055 30.1529C26.023 30.2168 25.9909 30.2805 25.9589 30.355C24.9541 30.759 24.2487 30.6314 23.9708 30.5463C25.3389 29.5044 26.2795 28.5689 26.4291 28.42C26.6002 28.7496 26.5253 29.2387 26.2367 29.7809C26.1833 29.8766 26.1192 30.0041 26.055 30.1529ZM24.6442 29.7277C24.1098 30.1742 23.4578 30.6633 22.7417 31.1524C22.6241 30.8547 22.3676 29.8553 23.1157 28.3775C23.5967 28.1968 24.0991 28.0479 24.6442 27.931C24.6549 27.931 24.6763 27.931 24.6869 27.931C24.3128 28.5689 24.548 29.43 24.6442 29.7277ZM19.2038 33.2149C19.9841 32.9491 20.7537 32.5876 21.4805 32.1836C21.5766 32.3218 22.2393 33.1192 23.7464 33.1192C23.8105 33.1192 23.8853 33.1192 23.9494 33.1086C23.1799 33.789 22.1431 34.3737 20.7537 34.6714C19.5779 34.5545 19.268 33.5232 19.2038 33.2149ZM35.76 28.3669C35.5462 28.5901 35.2256 28.7177 34.9156 28.6964C34.8088 28.6858 34.7125 28.6646 34.6057 28.6433C34.4881 28.622 34.3705 28.5901 34.253 28.5795C33.9964 28.5582 33.6651 28.6327 33.5048 28.8984C33.3765 29.1111 33.3979 29.3875 33.5475 29.6852C33.6544 29.8978 34.0285 30.7909 34.0712 31.0248C34.082 31.0992 34.1033 31.2055 34.0927 31.3012C34.0927 31.365 34.0712 31.4501 34.0178 31.5138C33.9216 31.6414 33.8468 31.769 33.772 31.9072C33.6651 32.0986 33.5689 32.2899 33.3979 32.3963L33.2376 32.5132L33.3765 32.6407C33.6758 32.9172 33.9109 33.2786 34.0392 33.6614C34.0712 33.7465 34.0927 33.8528 34.082 33.9485C34.0712 34.076 33.9858 34.2036 33.8147 34.3525C33.7827 34.3843 33.7399 34.4162 33.6972 34.4481C33.5689 34.5545 33.4407 34.6608 33.3445 34.799C33.3124 34.8415 33.2696 34.8947 33.2162 34.9372C33.1307 35.0222 33.0452 35.1073 32.9918 35.2455C32.9383 35.3731 32.9276 35.5113 32.9383 35.6707C32.9597 35.8621 33.0238 36.0429 33.0773 36.213C33.1414 36.3937 33.1948 36.5638 33.2055 36.7339C33.2269 37.1379 33.2055 37.5526 33.1521 37.9672C33.0879 38.4137 32.949 38.7752 32.7352 39.0622C32.4894 39.3918 32.0832 39.6576 31.5809 39.8383C31.0251 40.0297 30.5762 40.1148 30.1593 40.1148H29.1974C28.182 40.051 27.3376 39.934 26.5681 39.7533L26.536 39.7427C26.2367 39.6683 25.8947 39.5938 25.5741 39.6895C25.3496 39.7533 25.1465 39.8915 24.9648 40.1041C24.6763 40.4337 24.4946 41.3055 24.4946 41.3055C24.4946 41.3374 24.4625 41.5713 24.2701 41.7201C24.0991 41.8584 23.8533 41.9009 23.5219 41.8477C23.383 41.8265 23.1478 41.7945 22.8379 41.752C17.9747 41.0822 15.3026 40.6038 14.8751 40.3168C15.0782 39.8703 15.153 39.7107 15.153 39.7107C15.9973 38.116 16.6814 36.5851 17.2372 35.1073C17.7288 35.1604 18.1885 35.1817 18.6267 35.1817C23.9387 35.1817 25.6382 31.6627 26.3223 30.2699C26.3971 30.1317 26.4505 30.0041 26.5039 29.9085C26.878 29.2068 26.9208 28.5582 26.6215 28.1224C26.3864 27.7928 25.852 27.4313 24.5907 27.6014C22.902 27.9416 21.5446 28.6539 20.4971 29.4194C20.4651 29.4194 20.4223 29.4406 20.4009 29.4726C20.3902 29.4832 20.3902 29.4938 20.3796 29.5044C19.4497 30.2062 18.787 30.9291 18.3809 31.4394C18.6267 30.4294 18.819 29.4726 18.958 28.5476C23.9067 28.3031 25.6702 23.5827 25.6917 23.5401C25.6917 23.5295 25.7023 23.5082 25.7237 23.4657C26.2047 22.2856 26.6963 20.744 26.2902 20.0955C26.1726 19.9041 25.9802 19.7978 25.7451 19.7872C23.6502 19.8085 21.8118 20.7972 20.433 22.6258C19.8986 23.3381 19.5352 24.0398 19.3 24.5607C19.3107 23.7315 19.268 22.966 19.2146 22.2856C19.1825 21.9347 19.1504 21.5946 19.1077 21.265C21.6515 19.8403 23.1051 17.9054 23.4257 15.5133C23.6822 13.589 23.1265 11.9411 22.9234 11.3244L22.902 11.25C22.7524 10.7929 22.5172 10.2507 22.0469 10.1018C21.6622 9.98484 21.2026 10.1337 20.5933 10.5802C18.5946 12.2494 18.1777 15.3219 18.1029 16.8954C17.8357 16.1512 17.6113 15.6834 17.5365 15.5239C18.2953 12.866 17.6861 11.452 17.0127 9.98484V9.97423C17.0021 9.96357 17.0021 9.94235 16.9914 9.93169L16.8952 9.72969C16.1042 7.96486 12.5771 6.95485 11.4228 6.61466C10.8563 6.44454 10.4288 6.48708 10.1615 6.73158C9.79816 7.06116 9.88368 7.62462 9.89434 7.74159C9.8516 11.0161 11.6365 13.0999 13.1543 14.2694C14.6186 15.4069 16.0722 15.9173 16.4035 16.0236C16.7455 16.7147 17.0234 17.4164 17.2586 18.1287C16.3714 17.0974 14.4903 15.3113 12.374 15.8322C10.4715 16.3 9.5844 16.5977 9.4027 17.1293C9.28511 17.4801 9.50959 17.8416 9.73401 18.118C9.83024 18.235 9.92641 18.3732 10.0333 18.5114C10.7708 19.532 11.7862 20.9248 14.4903 21.265C15.2278 21.3607 15.8157 21.3926 16.2966 21.3926C17.1944 21.3926 17.6754 21.2756 17.932 21.1693C18.1136 22.5833 18.1243 23.9867 18.0281 25.3369C17.2372 24.3588 14.7041 21.6371 11.1876 21.3926C10.5998 21.3394 10.0119 21.3394 9.71265 21.6902C9.47751 21.9666 9.44544 22.4026 9.62713 23.1149C9.81953 23.8803 10.3112 25.3263 11.4976 26.5063C12.7695 27.7715 14.469 28.3987 16.5745 28.3987C16.9166 28.3987 17.2693 28.3775 17.6327 28.3456C17.4082 29.4938 17.1303 30.5782 16.831 31.5564C16.628 32.2049 16.4142 32.8428 16.2005 33.4381C16.0294 32.864 15.666 31.8966 14.9499 30.9291C13.9345 29.5576 12.0106 27.931 8.53693 28.016C7.26504 28.0267 6.54893 28.2499 6.29238 28.7283C6.08932 29.1111 6.1962 29.6214 6.62374 30.2912L6.69855 30.4188C7.57498 31.8115 9.62713 35.0329 15.4523 35.3199C14.3834 37.8183 13.3787 39.4237 13.368 39.445L13.2825 39.5938C13.2612 39.6257 13.0795 39.8277 11.4441 39.4769C10.4395 39.2643 9.30648 38.9347 8.6331 38.7327C8.40868 38.6689 8.22699 38.6157 8.13076 38.5838C6.95505 38.2968 6.65581 37.9672 6.59166 37.7971C6.53822 37.6802 6.58096 37.5951 6.59166 37.5738C7.45744 36.3193 7.4788 34.48 6.6451 32.6833C6.1962 31.7052 5.56561 30.8121 4.95634 29.951C4.62503 29.4832 4.2723 28.9941 3.96236 28.4944C1.32234 24.2844 0.670354 18.5646 2.10258 12.3982C2.46598 10.8567 3.03246 8.86852 4.22957 7.24189C6.0038 4.82853 8.73999 3.68033 10.728 3.13811C13.2825 2.43643 15.976 2.33011 18.5733 2.21317C19.7917 2.16001 21.0529 2.10685 22.25 2.4258C23.5433 2.77664 24.5694 3.57401 24.9755 4.56275C25.3069 5.37074 25.1679 6.38072 24.6442 7.03989L24.548 7.18874C27.1987 8.80476 29.4646 11.3457 30.651 14.195C30.8862 14.7478 31.0892 15.3219 31.2923 15.8854C31.3992 16.1937 31.5168 16.5127 31.6343 16.821C31.9122 17.5545 32.2649 18.4795 32.0939 19.33C32.0512 19.5108 31.9977 19.6915 31.9336 19.8722C31.8695 20.053 31.816 20.2337 31.7733 20.4357C31.5595 21.467 32.8207 23.083 32.8742 23.1468C32.8955 23.168 34.6057 25.4113 35.4821 26.5063C35.7173 26.804 35.9951 27.1442 36.0486 27.527C36.0807 27.814 35.9738 28.1436 35.76 28.3669Z" stroke="var(--stroke-0, #3D3D39)" stroke-width="0.5"/>
</g>
</g>
</svg>
