<svg preserveAspectRatio="none" width="100%" height="100%" overflow="visible" style="display: block;" viewBox="0 0 40 48" fill="none" xmlns="http://www.w3.org/2000/svg">
<g id="logo-yudin-tm" clip-path="url(#clip0_0_508)">
<g id="Vector">
<path d="M39.9831 29.9599C39.9123 29.4495 39.5587 29.0204 39.2876 28.6724C38.321 27.4778 36.435 25.0306 36.4114 25.0074C36.0342 24.5319 35.0912 23.1285 35.2563 22.3283C35.2916 22.1427 35.3623 21.9456 35.4213 21.76C35.492 21.5512 35.5627 21.3425 35.6099 21.1221C35.822 20.0899 35.4213 19.0344 35.0912 18.1878C34.9616 17.8514 34.8319 17.5151 34.714 17.1787C34.4901 16.5641 34.2543 15.9262 33.995 15.323C32.6748 12.2148 30.3409 9.524 27.4294 7.71471C27.9952 6.9028 28.1248 5.76621 27.7358 4.82676C27.2408 3.64376 26.0384 2.69272 24.4943 2.28679C23.1269 1.92724 21.7124 1.98523 20.3333 2.04322C17.4453 2.1708 14.4631 2.29838 11.5988 3.06386C9.34736 3.66696 6.24723 4.95434 4.23159 7.6683C2.86424 9.50079 2.22771 11.7045 1.82694 13.4209C0.223839 20.2406 0.966449 26.5732 3.92509 31.2472C4.26696 31.7924 4.65591 32.3374 5.03315 32.8478C5.69323 33.7756 6.37691 34.7383 6.86017 35.7705C7.72067 37.6262 7.70892 39.4934 6.82485 40.7692C6.82485 40.7692 6.80123 40.8041 6.78948 40.8389C6.7423 40.9316 6.69517 41.1056 6.78948 41.326C6.96629 41.7783 7.62636 42.1494 8.73442 42.4046C8.84049 42.4278 9.02911 42.4858 9.27662 42.5554C11.7638 43.2745 13.2726 43.6108 14.0859 43.6108C14.4749 43.6108 14.7343 43.46 14.8403 43.3092L15.0289 42.9961L15.0525 42.9497L15.0996 42.8569L15.194 42.6946C15.583 42.0335 16.302 40.7229 17.0681 38.9832C17.08 38.9484 17.0918 38.9136 17.1035 38.8904C17.41 38.1713 17.0328 38.1597 17.0328 38.1597C14.5338 38.0553 12.6832 37.4522 11.2805 36.6867C12.2942 36.6172 12.9661 35.9444 13.1194 35.7821C13.5555 36.014 14.0034 36.246 14.4749 36.4664C14.4867 36.4664 14.4867 36.478 14.4985 36.478H14.5103C15.3472 36.8607 16.2195 37.2086 17.1271 37.487C17.1389 37.487 17.1507 37.487 17.1625 37.487C17.2096 37.487 17.2568 37.4522 17.2803 37.4058C17.3039 37.3478 17.2685 37.2783 17.1978 37.2666C16.3256 36.9999 15.4886 36.6751 14.6871 36.304C14.8168 35.9097 15.2058 34.4019 14.7814 32.6042C15.2411 32.9869 15.6655 33.4277 16.0426 33.9264C17.0917 35.3297 17.4336 36.7679 17.4925 37.0463C17.4925 37.0463 17.7165 37.4406 17.9758 36.7795C17.9876 36.7563 17.9876 36.7331 17.9994 36.7099C18.2587 36.0256 18.518 35.295 18.7538 34.5295C19.0838 33.4625 19.3903 32.2911 19.6378 31.0385C19.6378 31.0269 19.6496 31.0036 19.6496 30.9921C19.7322 30.5049 19.3667 30.5745 19.3667 30.5745C18.2705 30.6789 17.3157 30.6441 16.4788 30.5049C17.5986 30.2846 18.188 29.5423 18.353 29.2988C18.5888 29.3567 18.8363 29.4147 19.0838 29.4611C19.0956 29.4611 19.0956 29.4611 19.1074 29.4611C19.1663 29.4611 19.2135 29.4263 19.2253 29.3683C19.2371 29.3103 19.1899 29.2408 19.131 29.2291C18.4709 29.1132 17.8343 28.9276 17.2214 28.6724C17.3039 28.3013 17.5043 27.0023 16.7735 25.3902C18.4237 26.5268 19.4728 27.849 19.6968 28.1505C19.6968 28.1505 19.9797 28.6261 20.0386 28.3245C20.0386 28.3129 20.0386 28.3013 20.0386 28.2897C20.2037 26.5964 20.2154 24.8219 19.9915 23.0358C19.9443 22.6878 19.5671 22.7458 19.5553 22.7574C19.2724 22.885 18.353 23.1634 15.8894 22.8618C15.1939 22.7806 14.6046 22.6298 14.0977 22.4327C15.3943 22.2935 16.1605 21.5628 16.3491 21.3657C16.8206 21.4932 17.245 21.586 17.5986 21.6556C17.6104 21.6672 17.634 21.6672 17.6458 21.6672C18.5534 21.8412 19.0838 21.8644 19.0956 21.8644C19.1545 21.8644 19.2135 21.818 19.2135 21.7484C19.2135 21.6788 19.1663 21.6324 19.0956 21.6324C19.0838 21.6324 18.5888 21.6092 17.7518 21.4468C17.7283 21.0873 17.5868 19.7767 16.7735 18.3733C17.964 19.162 18.8481 20.2755 19.0956 20.6118C19.1192 20.6349 19.5318 20.8205 19.461 20.4958C19.461 20.4958 19.461 20.4958 19.461 20.4842C19.461 20.4726 19.461 20.461 19.4492 20.4494C19.1545 19.3708 18.7538 18.3037 18.2233 17.2599L18.188 17.1903L18.1173 17.1671C18.1055 17.1671 16.3256 16.6336 14.581 15.2883C14.027 14.8591 13.5437 14.4068 13.1194 13.9197C13.5791 14.0473 14.0624 14.0937 14.5103 14.0937C15.524 14.0937 16.4198 13.8501 16.7028 13.7689C17.3393 14.7316 17.8697 15.7174 18.188 16.68C18.1998 16.7264 18.2469 16.7612 18.3058 16.7612C18.3176 16.7612 18.3294 16.7612 18.3412 16.7612C18.4001 16.738 18.4355 16.68 18.412 16.6104C18.2351 16.0885 18.0112 15.555 17.7283 15.0215C17.8933 14.7431 18.577 13.4789 18.6595 11.8204C19.2135 13.1542 19.5318 14.5344 18.8363 16.8888L18.8127 16.9584L18.8481 17.0164C18.8598 17.0279 19.3196 17.8978 19.7911 19.4752C19.8972 19.7883 20.1565 19.3824 20.1565 19.278C20.1565 18.7793 20.18 17.4107 20.5337 15.903C20.6752 18.0834 21.5356 19.1156 21.795 19.3708C21.5356 19.8347 21.2292 20.2522 20.8991 20.5886C20.852 20.6349 20.852 20.7046 20.8991 20.751C20.9227 20.7741 20.9462 20.7857 20.9816 20.7857C21.017 20.7857 21.0405 20.7741 21.0641 20.751C21.2174 20.5886 21.3706 20.4146 21.512 20.2174C21.6535 20.2406 21.9364 20.2986 22.3372 20.2986C22.8322 20.2986 23.4924 20.2174 24.1642 19.9159C23.4099 21.0177 22.3136 21.9803 20.8873 22.7922C20.8755 22.7922 20.5926 22.8734 20.6162 23.6273C20.6398 23.8476 20.6633 24.0796 20.6869 24.3116C20.7694 25.2626 20.8048 26.3528 20.7577 27.5474C20.7812 27.8838 21.123 27.733 21.1584 27.6286C21.2763 27.2922 21.5828 26.5152 22.1368 25.6453C21.8539 27.1995 22.1485 28.2201 22.2547 28.5333C21.9717 28.7188 21.6889 28.8812 21.406 29.0204C21.347 29.0552 21.3235 29.1248 21.3588 29.1712C21.3824 29.2059 21.4177 29.2291 21.4649 29.2291C21.4885 29.2291 21.5003 29.2291 21.5238 29.2176C22.3725 28.7884 23.2094 28.1853 23.9992 27.501C24.176 27.6402 24.6593 27.9302 25.5787 27.9302C25.8381 27.9302 26.1327 27.907 26.4628 27.849C25.3666 29.1712 23.5631 30.6093 20.8402 30.7717C20.8402 30.7717 20.5573 30.7253 20.4158 31.2008C20.404 31.2472 20.404 31.2936 20.3922 31.3516C20.2272 32.407 19.9915 33.5089 19.6732 34.6686C19.6732 34.6803 19.6732 34.6803 19.6732 34.6803C19.6732 34.7035 19.6614 34.7267 19.6496 34.7498C19.6496 34.7498 19.6496 34.7498 19.6496 34.7615C19.5317 35.3529 19.9207 35.179 19.9443 35.1326C20.1329 34.8542 20.8166 33.8684 22.0307 32.8593C21.6064 34.1236 21.901 35.3877 21.96 35.5965C21.3117 35.8749 20.6515 36.1068 19.9915 36.2576C19.9325 36.2692 19.8853 36.3388 19.909 36.3968C19.9207 36.4548 19.9679 36.4896 20.0268 36.4896C20.0386 36.4896 20.0504 36.4896 20.0504 36.4896C20.2979 36.4316 20.5573 36.362 20.8048 36.2808C20.8873 36.6287 21.1938 37.545 22.1604 37.9045C21.2409 38.0437 20.2037 38.0669 19.0131 37.9509C19.0131 37.9509 18.7302 37.9277 18.577 38.1133C17.9758 39.7138 17.2332 41.384 16.302 43.1121L16.0545 43.634C16.0191 43.7152 15.9719 43.7964 15.9248 43.9007C15.8894 43.9703 15.9012 44.0515 15.9366 44.1095C16.1251 44.4459 17.74 44.8866 25.0129 45.8724C25.3547 45.9188 25.6259 45.9536 25.7673 45.9768C25.8734 45.9884 25.9795 46 26.0856 46C26.4039 46 26.6632 45.9188 26.8754 45.7564C27.229 45.4781 27.2526 45.049 27.2526 45.049C27.2644 44.6547 27.4176 44.2603 27.6887 43.9587C27.8419 43.7848 28.0188 43.6572 28.1956 43.6108C28.4667 43.5296 28.7731 43.5992 29.0796 43.6804L29.115 43.692C29.9873 43.9007 30.9303 44.0283 32.0855 44.0979H33.1581C33.6532 44.0979 34.1954 43.9936 34.8437 43.7732C35.4684 43.5644 35.9635 43.2281 36.2818 42.8105C36.5529 42.451 36.7297 41.9987 36.8122 41.4535C36.8829 40.978 36.9065 40.5025 36.8829 40.0386C36.8712 39.8066 36.8004 39.5863 36.7297 39.3775C36.6708 39.2035 36.6118 39.0296 36.5882 38.8672C36.5765 38.7512 36.5882 38.6468 36.6236 38.5656C36.659 38.496 36.7179 38.4264 36.8004 38.3568C36.8594 38.2988 36.9301 38.2293 36.9772 38.1597C37.0597 38.0437 37.1776 37.9509 37.2955 37.8465C37.3427 37.8118 37.3898 37.777 37.4252 37.7306C37.6727 37.5102 37.8142 37.2898 37.8377 37.0695C37.8613 36.8955 37.8142 36.7447 37.767 36.6172C37.6374 36.2112 37.3898 35.8169 37.0833 35.4921C37.2365 35.3414 37.3427 35.1558 37.437 34.9702C37.5077 34.831 37.5902 34.7035 37.6727 34.5875C37.767 34.4715 37.8142 34.3323 37.8259 34.1699C37.8377 34.0192 37.8142 33.88 37.7906 33.7756C37.7199 33.4509 37.2719 32.4186 37.1776 32.2215C37.1069 32.0939 37.0126 31.8503 37.1187 31.688C37.213 31.5372 37.437 31.4908 37.6138 31.5024C37.7317 31.514 37.8377 31.5372 37.9556 31.5604C38.0852 31.5836 38.2149 31.6183 38.3564 31.63C38.8043 31.6647 39.264 31.4792 39.5705 31.1545C39.9005 30.8529 40.0538 30.4006 39.9831 29.9599ZM10.9151 36.4548C9.88956 35.8169 9.14698 35.0978 8.59298 34.4367C8.64011 34.4367 8.67548 34.4367 8.72261 34.4367C9.47699 34.4367 10.0664 34.0888 10.2668 33.9612C11.0447 34.5179 11.9524 35.1094 12.9543 35.6661C12.7304 35.8981 11.9759 36.5707 10.9151 36.4548ZM11.2923 31.0501C12.5064 32.4998 11.9288 34.2511 11.752 34.6918C10.9033 34.1468 10.1371 33.6016 9.50061 33.1145C9.61849 32.7898 9.98387 31.6532 9.4063 30.9109C10.0664 30.8993 10.7029 30.9457 11.2923 31.0501ZM9.08805 30.9109C9.72455 31.4908 9.44167 32.5694 9.30018 32.9637C8.12148 32.0475 7.40242 31.3516 7.33167 31.282C7.64998 31.0616 8.23935 30.9457 9.08805 30.9109ZM7.16667 31.4444C7.2138 31.4908 7.9918 32.2447 9.26486 33.2305C9.27662 33.2421 9.28843 33.2537 9.31199 33.2653C9.54774 33.4393 9.7953 33.6364 10.0546 33.822C9.78349 33.9844 9.13518 34.2975 8.39255 34.1815C8.03892 33.7292 7.76785 33.3117 7.56742 32.9869L7.47316 32.8478C7.08417 32.2447 6.96629 31.7923 7.13129 31.5024C7.1431 31.4792 7.15486 31.456 7.16667 31.4444ZM14.5103 36.2112C13.6026 35.7821 12.7421 35.3065 11.9642 34.8194C12.1174 34.4367 12.7539 32.6738 11.6459 31.1196C12.7186 31.3516 13.6851 31.7691 14.5103 32.3838C15.0171 34.1815 14.6399 35.7705 14.5103 36.2112ZM15.8894 30.3425C15.8658 30.3425 15.8423 30.3542 15.8305 30.3658C14.5928 30.041 13.6498 29.4727 12.9308 28.8C13.1429 28.8464 13.3551 28.858 13.5437 28.858C14.6281 28.858 15.4297 28.3129 15.6536 28.1389C16.1016 28.3941 16.5731 28.6377 17.0564 28.8464C17.0681 28.8464 17.0681 28.858 17.08 28.858C17.08 28.858 17.08 28.858 17.0917 28.858C17.4336 28.9972 17.7872 29.1248 18.1526 29.2291C17.9051 29.5423 17.186 30.331 15.8894 30.3425ZM13.4612 23.8825C14.192 25.0306 13.9916 26.2252 13.8856 26.6544C12.1174 25.2626 10.9741 23.8476 10.9504 23.8244C11.1626 23.6737 11.5516 23.6389 12.1999 23.6969C12.6361 23.7201 13.0486 23.7896 13.4612 23.8825ZM10.7972 23.9984C10.9387 24.1724 11.5988 24.9495 12.6243 25.8889C12.2471 25.9469 11.4691 26.0049 10.9504 25.5409C10.9033 25.4018 10.8679 25.2626 10.8444 25.1466C10.7029 24.6015 10.6911 24.2304 10.7972 23.9984ZM12.141 26.1556C12.4593 26.1556 12.7186 26.1093 12.8364 26.0745C13.1547 26.3528 13.4966 26.6428 13.8619 26.9211C13.8738 26.9443 13.8973 26.9559 13.9209 26.9675C14.3924 27.3271 14.8993 27.6866 15.4415 28.0113C15.0761 28.2665 13.9563 28.916 12.6125 28.4753C11.8227 27.6286 11.3512 26.6776 11.0801 25.9005C11.4102 26.0976 11.8109 26.1556 12.141 26.1556ZM17.0328 28.5797C15.9483 28.1042 14.9582 27.4663 14.0977 26.8167C14.192 26.4804 14.4867 25.2394 13.7913 23.9636C14.7696 24.2304 15.6536 24.6595 16.4316 25.1466C17.2803 26.7704 17.1153 28.1621 17.0328 28.5797ZM13.6969 22.2355C13.6851 22.2355 13.6616 22.2355 13.6498 22.2355C12.5418 21.6904 11.9052 20.9017 11.3866 20.2058C11.4809 20.2174 11.5752 20.229 11.6813 20.229C12.1174 20.229 12.5771 20.1131 12.7068 20.0782C13.3079 20.345 13.8856 20.577 14.4278 20.7741C14.4396 20.7857 14.4513 20.7857 14.4631 20.7857C15.0643 20.9945 15.6183 21.1685 16.1251 21.3077C15.8187 21.586 14.9936 22.2355 13.6969 22.2355ZM12.9543 17.805C14.1331 18.2225 14.3334 19.9507 14.3688 20.4958C13.2608 20.0899 11.9996 19.5332 10.6676 18.7793C10.6557 18.7793 10.6557 18.7793 10.644 18.7677C10.809 18.4429 11.6106 18.153 12.9543 17.805ZM12.3532 19.9159C12.0113 19.9855 11.4927 20.0435 11.198 19.9159C11.1862 19.9159 11.1744 19.9043 11.1626 19.9043C11.0801 19.7883 10.9976 19.6723 10.9151 19.5679C10.7383 19.3476 10.6322 19.162 10.6086 19.0112C11.2098 19.3592 11.7991 19.6607 12.3532 19.9159ZM17.5515 21.412C16.7853 21.2613 15.7715 21.0061 14.5928 20.5886C14.581 20.1711 14.4631 18.3733 13.2962 17.7122C13.4023 17.689 13.5083 17.6543 13.6262 17.6311C14.6046 17.3875 15.5476 17.6543 16.3727 18.1182C17.3157 19.5332 17.5161 20.9597 17.5515 21.412ZM12.8836 13.6065C12.1056 12.6091 11.587 11.5072 11.3394 10.2894C11.9759 10.6026 12.6479 10.6954 13.1901 10.6954C13.6734 10.6954 14.0506 10.6258 14.2038 10.591C15.0171 11.4841 15.8658 12.5163 16.6085 13.5949C16.0898 13.7457 14.2981 14.1632 12.8836 13.6065ZM15.6536 8.71215V8.72372C16.1605 9.82556 15.8541 11.4145 15.7008 11.9828C15.2529 11.4261 14.7932 10.8926 14.3453 10.3938C14.3334 10.3706 14.3217 10.3591 14.3099 10.3475C12.8836 8.79334 11.6341 7.6915 11.4456 7.52912C11.7049 7.38995 12.0938 7.45951 12.3885 7.5407C13.0486 7.74949 14.4042 8.13224 15.6536 8.71215ZM11.2805 7.70308C11.3277 7.73786 12.5771 8.81649 14.027 10.3823C13.5437 10.4635 12.3178 10.5794 11.2923 9.98794C11.2098 9.48922 11.1744 8.97887 11.1862 8.44537V8.42217V8.39896C11.1744 8.41059 11.0919 7.98143 11.2805 7.70308ZM17.634 14.8127C17.41 14.4184 17.1743 14.0125 16.915 13.6297C16.9031 13.6065 16.9031 13.5949 16.8913 13.5833C16.5849 13.1194 16.243 12.6671 15.9012 12.2263C15.9955 11.9016 16.4435 10.1851 15.9719 8.87448C16.9738 9.37319 17.8697 10.0111 18.2233 10.7766L18.3294 11.0085C18.3766 11.1129 18.4237 11.2289 18.4827 11.3333C18.518 12.9686 17.8815 14.3372 17.634 14.8127ZM20.793 15.1375C21.0405 14.3256 21.406 13.5253 21.901 12.8294C22.1014 13.9545 23.1505 14.5575 23.4688 14.7199C23.1623 16.1813 22.679 17.863 21.96 19.1968C21.6417 18.8604 20.7341 17.6427 20.793 15.1375ZM24.2232 11.4261C24.4589 11.5537 24.6475 11.8668 24.8244 12.4003L24.8597 12.4931C25.2015 13.4905 25.4019 14.4532 25.4491 15.3578C24.6357 16.5873 23.5749 16.8772 23.1623 16.9352C23.9403 14.4184 24.1878 11.8088 24.2232 11.4261ZM23.9874 11.3565C23.9874 11.3913 23.8695 12.7483 23.5159 14.4764C23.1505 14.2792 22.1722 13.6413 22.1132 12.5627C22.3254 12.2959 22.5611 12.0524 22.8322 11.832C23.3273 11.4725 23.7045 11.3101 23.9992 11.3449C23.9874 11.3565 23.9874 11.3565 23.9874 11.3565ZM21.7124 20.0551C22.2782 19.2432 22.7144 18.2225 23.068 17.1787C23.398 17.144 24.5179 16.9584 25.4491 15.7406C25.4726 17.144 25.1308 18.4313 24.4589 19.5679C23.3155 20.229 22.1486 20.1246 21.7124 20.0551ZM22.5494 25.1582C23.1152 24.3695 23.8695 23.5577 24.8597 22.943C24.2703 24.4855 24.9894 25.7845 25.2133 26.1209C24.3882 26.9675 23.4805 27.791 22.5258 28.4405C22.3961 28.0577 22.1132 26.8747 22.5494 25.1582ZM28.6671 22.2587C28.7496 22.5138 28.7849 23.059 28.4313 24.2072C28.0069 24.5204 27.3822 24.416 27.0993 24.3463C27.9362 23.3141 28.5138 22.4906 28.6671 22.2587ZM28.502 22.0731C28.4784 22.1079 27.1936 24.0448 25.3666 25.9469C25.1308 25.5641 24.4943 24.3231 25.1308 22.885C25.1426 22.8502 25.1426 22.8154 25.119 22.7806C26.0031 22.2935 27.0404 21.9688 28.2781 21.9456C28.3724 21.9571 28.4549 21.9803 28.5138 22.0383C28.5256 22.0615 28.5138 22.0615 28.502 22.0731ZM24.2232 27.3966C24.6357 27.0255 25.0365 26.6312 25.4255 26.2368C25.4255 26.2368 25.4255 26.2368 25.4373 26.2368C25.4491 26.2252 25.4609 26.2137 25.4726 26.202C26.0149 25.6338 26.5099 25.0654 26.9461 24.5435C27.0757 24.5783 27.3586 24.6595 27.6887 24.6595C27.9009 24.6595 28.1248 24.6247 28.337 24.5435C28.2427 24.8335 28.1248 25.1466 27.9716 25.5062C27.948 25.5641 27.9362 25.5989 27.9362 25.6106C27.9244 25.6338 27.5708 26.5616 26.7457 27.6402C25.2251 27.9418 24.4707 27.559 24.2232 27.3966ZM25.0837 31.0848C24.3057 32.7434 24.6593 33.8336 24.789 34.1236C23.9992 34.6455 23.1269 35.1326 22.2311 35.5385C22.1604 35.237 21.8775 33.8336 22.455 32.6042C23.1741 32.0475 24.0464 31.5024 25.0837 31.0848ZM26.5924 35.8633C24.7536 36.0488 23.952 35.179 23.7988 34.9934C24.6357 34.5179 25.4137 33.996 26.1092 33.4857C26.1917 33.5204 26.5335 33.648 27.0639 33.648C27.4176 33.648 27.8537 33.5901 28.3724 33.4161C27.9952 34.1351 27.4529 35.0398 26.5924 35.8633ZM28.6317 32.8941C28.5963 32.9637 28.5609 33.0333 28.5256 33.1145C27.4176 33.5552 26.6396 33.4161 26.3331 33.3233C27.8419 32.1867 28.8793 31.166 29.0443 31.0037C29.2329 31.3632 29.1503 31.8967 28.8321 32.4882C28.7731 32.5926 28.7024 32.7318 28.6317 32.8941ZM28.9028 30.8181C28.891 30.8297 28.2073 31.514 27.1347 32.3955L27.2172 30.4586C28.0305 30.3658 28.6081 30.4817 28.9028 30.8181C28.9028 30.8065 28.9028 30.8065 28.9028 30.8181ZM27.0757 32.4302C26.4864 32.9173 25.7673 33.4509 24.9776 33.9844C24.8479 33.6596 24.565 32.5694 25.3901 30.9573C25.9206 30.7601 26.4746 30.5977 27.0757 30.4701C27.0876 30.4701 27.1111 30.4701 27.1229 30.4701C26.7103 31.166 26.9697 32.1055 27.0757 32.4302ZM21.0759 36.2344C21.9364 35.9444 22.7851 35.5501 23.5867 35.1094C23.6927 35.2602 24.4236 36.13 26.0856 36.13C26.1563 36.13 26.2388 36.13 26.3096 36.1184C25.4609 36.8607 24.3175 37.4986 22.7851 37.8233C21.4885 37.6958 21.1467 36.5707 21.0759 36.2344ZM39.3347 30.9457C39.099 31.1892 38.7454 31.3284 38.4035 31.3052C38.2857 31.2936 38.1795 31.2704 38.0617 31.2472C37.932 31.224 37.8024 31.1892 37.6727 31.1777C37.3898 31.1545 37.0244 31.2356 36.8476 31.5256C36.7061 31.7575 36.7297 32.0591 36.8947 32.3838C37.0126 32.6158 37.4252 33.5901 37.4723 33.8452C37.4841 33.9264 37.5077 34.0424 37.4959 34.1468C37.4959 34.2163 37.4723 34.3091 37.4134 34.3787C37.3073 34.5179 37.2248 34.6571 37.1423 34.8078C37.0244 35.0166 36.9183 35.2254 36.7297 35.3414L36.5529 35.4689L36.7061 35.6081C37.0362 35.9096 37.2955 36.304 37.437 36.7215C37.4723 36.8143 37.4959 36.9303 37.4841 37.0347C37.4723 37.1739 37.378 37.313 37.1894 37.4754C37.154 37.5102 37.1069 37.545 37.0597 37.5798C36.9183 37.6958 36.7769 37.8118 36.6708 37.9625C36.6354 38.0089 36.5882 38.0669 36.5293 38.1133C36.435 38.2061 36.3407 38.2989 36.2818 38.4497C36.2228 38.5888 36.211 38.7396 36.2228 38.9135C36.2464 39.1223 36.3172 39.3195 36.3761 39.5051C36.4468 39.7022 36.5057 39.8878 36.5175 40.0734C36.5411 40.5141 36.5175 40.9665 36.4586 41.4188C36.3879 41.9059 36.2346 42.3002 35.9988 42.6134C35.7278 42.9729 35.2798 43.2628 34.7258 43.46C34.1129 43.6688 33.6178 43.7616 33.1581 43.7616H32.0972C30.9774 43.692 30.0462 43.5644 29.1975 43.3672L29.1621 43.3557C28.8321 43.2745 28.4549 43.1933 28.1013 43.2977C27.8537 43.3672 27.6298 43.518 27.4294 43.75C27.1111 44.1095 26.9107 45.0605 26.9107 45.0605C26.9107 45.0953 26.8754 45.3505 26.6632 45.5129C26.4746 45.6637 26.2035 45.7101 25.8381 45.652C25.6848 45.6289 25.4255 45.594 25.0837 45.5477C19.7203 44.817 16.7735 44.2951 16.302 43.9819C16.526 43.4948 16.6085 43.3208 16.6085 43.3208C17.5396 41.5811 18.2941 39.911 18.907 38.2988C19.4492 38.3568 19.9561 38.38 20.4394 38.38C26.2977 38.38 28.172 34.5411 28.9264 33.0217C29.0089 32.871 29.0678 32.7318 29.1268 32.6274C29.5393 31.8619 29.5865 31.1545 29.2564 30.6789C28.9971 30.3194 28.4077 29.925 27.0168 30.1106C25.1544 30.4817 23.6574 31.2588 22.5022 32.0939C22.4669 32.0939 22.4197 32.1171 22.3961 32.1519C22.3843 32.1635 22.3843 32.1751 22.3725 32.1867C21.347 32.9522 20.6162 33.7408 20.1683 34.2975C20.4394 33.1957 20.6515 32.1519 20.8048 31.1428C26.2624 30.8761 28.2073 25.7265 28.2309 25.6801C28.2309 25.6685 28.2427 25.6453 28.2663 25.5989C28.7967 24.3116 29.3389 22.6298 28.891 21.9224C28.7614 21.7136 28.5492 21.5976 28.2899 21.586C25.9795 21.6092 23.952 22.6878 22.4315 24.6827C21.8421 25.4598 21.4413 26.2252 21.182 26.7935C21.1938 25.8889 21.1467 25.0539 21.0877 24.3116C21.0523 23.9288 21.017 23.5577 20.9698 23.1982C23.7752 21.644 25.3784 19.5332 25.732 16.9236C26.0149 14.8243 25.4019 13.0266 25.1779 12.3539L25.1544 12.2727C24.9894 11.774 24.73 11.1825 24.2114 11.0202C23.787 10.8926 23.2802 11.0549 22.6083 11.5421C20.404 13.3629 19.9443 16.7148 19.8618 18.4313C19.5671 17.6195 19.3196 17.1091 19.2371 16.9352C20.074 14.0357 19.4021 12.4931 18.6595 10.8926V10.881C18.6477 10.8694 18.6477 10.8462 18.6359 10.8346L18.5298 10.6142C17.6575 8.68894 13.7677 7.58711 12.4946 7.21599C11.8699 7.0304 11.3984 7.07681 11.1037 7.34354C10.7029 7.70308 10.7972 8.31777 10.809 8.44537C10.7619 12.0176 12.7304 14.2908 14.4042 15.5666C16.0191 16.8076 17.6222 17.3643 17.9876 17.4803C18.3648 18.2342 18.6713 18.9997 18.9306 19.7767C17.9522 18.6517 15.8776 16.7032 13.5437 17.2715C11.4455 17.7819 10.4672 18.1066 10.2668 18.6865C10.1371 19.0692 10.3847 19.4635 10.6322 19.7651C10.7383 19.8927 10.8444 20.0435 10.9622 20.1943C11.7756 21.3077 12.8954 22.827 15.8776 23.1982C16.691 23.3025 17.3393 23.3373 17.8697 23.3373C18.8598 23.3373 19.3903 23.2097 19.6732 23.0938C19.8736 24.6363 19.8853 26.1673 19.7793 27.6402C18.907 26.5732 16.1134 23.6041 12.2353 23.3373C11.587 23.2793 10.9387 23.2793 10.6086 23.6621C10.3493 23.9636 10.3139 24.4392 10.5143 25.2162C10.7265 26.0513 11.2687 27.6286 12.5771 28.916C13.9798 30.2962 15.8541 30.9804 18.1762 30.9804C18.5534 30.9804 18.9424 30.9573 19.3432 30.9225C19.0956 32.1751 18.7892 33.3581 18.4591 34.4251C18.2351 35.1326 17.9994 35.8285 17.7636 36.478C17.575 35.8517 17.1743 34.7962 16.3845 33.7408C15.2647 32.2447 13.1429 30.4701 9.31199 30.5629C7.90929 30.5745 7.11954 30.8181 6.83661 31.34C6.61266 31.7575 6.73054 32.3143 7.20204 33.0449L7.28454 33.1841C8.25111 34.7035 10.5143 38.2177 16.9385 38.5308C15.7598 41.2564 14.6517 43.0077 14.6399 43.0309L14.5456 43.1933C14.5221 43.2281 14.3217 43.4484 12.5182 43.0657C11.4102 42.8337 10.1607 42.4742 9.41806 42.2538C9.17055 42.1842 8.97017 42.1262 8.86405 42.0914C7.56742 41.7783 7.23741 41.4188 7.16667 41.2332C7.10773 41.1056 7.15486 41.0128 7.16667 40.9896C8.12148 39.621 8.14504 37.6146 7.22561 35.6545C6.73054 34.5875 6.0351 33.6132 5.36316 32.6738C4.99778 32.1635 4.60878 31.63 4.26697 31.0848C1.35544 26.492 0.636403 20.2522 2.21592 13.5253C2.6167 11.8436 3.24143 9.67475 4.56165 7.90024C6.51835 5.26749 9.53593 4.0149 11.7284 3.42339C14.5456 2.65792 17.5161 2.54194 20.3805 2.41436C21.7242 2.35637 23.1152 2.29838 24.4354 2.64632C25.8616 3.02906 26.9932 3.89892 27.4411 4.97754C27.8066 5.85899 27.6533 6.96079 27.0757 7.67988L26.9696 7.84226C29.8929 9.60519 32.3919 12.3771 33.7003 15.4854C33.9596 16.0885 34.1836 16.7148 34.4076 17.3295C34.5255 17.6658 34.6551 18.0138 34.7848 18.3501C35.0912 19.1504 35.4802 20.1594 35.2916 21.0873C35.2445 21.2845 35.1855 21.4816 35.1148 21.6788C35.0441 21.876 34.9852 22.0731 34.938 22.2935C34.7023 23.4185 36.0932 25.1814 36.1521 25.251C36.1757 25.2742 38.0617 27.7214 39.0282 28.916C39.2876 29.2408 39.5941 29.6119 39.653 30.0294C39.6884 30.3425 39.5705 30.7021 39.3347 30.9457Z" fill="var(--fill-0, white)"/>
<path d="M28.9028 30.8181C28.891 30.8297 28.2073 31.514 27.1347 32.3955L27.2172 30.4586C28.0305 30.3658 28.6081 30.4817 28.9028 30.8181ZM28.9028 30.8181C28.9028 30.8065 28.9028 30.8065 28.9028 30.8181ZM39.9831 29.9599C39.9123 29.4495 39.5587 29.0204 39.2876 28.6724C38.321 27.4778 36.435 25.0306 36.4114 25.0074C36.0342 24.5319 35.0912 23.1285 35.2563 22.3283C35.2916 22.1427 35.3623 21.9456 35.4213 21.76C35.492 21.5512 35.5627 21.3425 35.6099 21.1221C35.822 20.0899 35.4213 19.0344 35.0912 18.1878C34.9616 17.8514 34.8319 17.5151 34.714 17.1787C34.4901 16.5641 34.2543 15.9262 33.995 15.323C32.6748 12.2148 30.3409 9.524 27.4294 7.71471C27.9952 6.9028 28.1248 5.76621 27.7358 4.82676C27.2408 3.64376 26.0384 2.69272 24.4943 2.28679C23.1269 1.92724 21.7124 1.98523 20.3333 2.04322C17.4453 2.1708 14.4631 2.29838 11.5988 3.06386C9.34736 3.66696 6.24723 4.95434 4.23159 7.6683C2.86424 9.50079 2.22771 11.7045 1.82694 13.4209C0.223839 20.2406 0.966449 26.5732 3.92509 31.2472C4.26696 31.7924 4.65591 32.3374 5.03315 32.8478C5.69323 33.7756 6.37691 34.7383 6.86017 35.7705C7.72067 37.6262 7.70892 39.4934 6.82485 40.7692C6.82485 40.7692 6.80123 40.8041 6.78948 40.8389C6.7423 40.9316 6.69517 41.1056 6.78948 41.326C6.96629 41.7783 7.62636 42.1494 8.73442 42.4046C8.84049 42.4278 9.02911 42.4858 9.27662 42.5554C11.7638 43.2745 13.2726 43.6108 14.0859 43.6108C14.4749 43.6108 14.7343 43.46 14.8403 43.3092L15.0289 42.9961L15.0525 42.9497L15.0996 42.8569L15.194 42.6946C15.583 42.0335 16.302 40.7229 17.0681 38.9832C17.08 38.9484 17.0918 38.9136 17.1035 38.8904C17.41 38.1713 17.0328 38.1597 17.0328 38.1597C14.5338 38.0553 12.6832 37.4522 11.2805 36.6867C12.2942 36.6172 12.9661 35.9444 13.1194 35.7821C13.5555 36.014 14.0034 36.246 14.4749 36.4664C14.4867 36.4664 14.4867 36.478 14.4985 36.478H14.5103C15.3472 36.8607 16.2195 37.2086 17.1271 37.487C17.1389 37.487 17.1507 37.487 17.1625 37.487C17.2096 37.487 17.2568 37.4522 17.2803 37.4058C17.3039 37.3478 17.2685 37.2783 17.1978 37.2666C16.3256 36.9999 15.4886 36.6751 14.6871 36.304C14.8168 35.9097 15.2058 34.4019 14.7814 32.6042C15.2411 32.9869 15.6655 33.4277 16.0426 33.9264C17.0917 35.3297 17.4336 36.7679 17.4925 37.0463C17.4925 37.0463 17.7165 37.4406 17.9758 36.7795C17.9876 36.7563 17.9876 36.7331 17.9994 36.7099C18.2587 36.0256 18.518 35.295 18.7538 34.5295C19.0838 33.4625 19.3903 32.2911 19.6378 31.0385C19.6378 31.0269 19.6496 31.0036 19.6496 30.9921C19.7322 30.5049 19.3667 30.5745 19.3667 30.5745C18.2705 30.6789 17.3157 30.6441 16.4788 30.5049C17.5986 30.2846 18.188 29.5423 18.353 29.2988C18.5888 29.3567 18.8363 29.4147 19.0838 29.4611C19.0956 29.4611 19.0956 29.4611 19.1074 29.4611C19.1663 29.4611 19.2135 29.4263 19.2253 29.3683C19.2371 29.3103 19.1899 29.2408 19.131 29.2291C18.4709 29.1132 17.8343 28.9276 17.2214 28.6724C17.3039 28.3013 17.5043 27.0023 16.7735 25.3902C18.4237 26.5268 19.4728 27.849 19.6968 28.1505C19.6968 28.1505 19.9797 28.6261 20.0386 28.3245C20.0386 28.3129 20.0386 28.3013 20.0386 28.2897C20.2037 26.5964 20.2154 24.8219 19.9915 23.0358C19.9443 22.6878 19.5671 22.7458 19.5553 22.7574C19.2724 22.885 18.353 23.1634 15.8894 22.8618C15.1939 22.7806 14.6046 22.6298 14.0977 22.4327C15.3943 22.2935 16.1605 21.5628 16.3491 21.3657C16.8206 21.4932 17.245 21.586 17.5986 21.6556C17.6104 21.6672 17.634 21.6672 17.6458 21.6672C18.5534 21.8412 19.0838 21.8644 19.0956 21.8644C19.1545 21.8644 19.2135 21.818 19.2135 21.7484C19.2135 21.6788 19.1663 21.6324 19.0956 21.6324C19.0838 21.6324 18.5888 21.6092 17.7518 21.4468C17.7283 21.0873 17.5868 19.7767 16.7735 18.3733C17.964 19.162 18.8481 20.2755 19.0956 20.6118C19.1192 20.6349 19.5318 20.8205 19.461 20.4958C19.461 20.4958 19.461 20.4958 19.461 20.4842C19.461 20.4726 19.461 20.461 19.4492 20.4494C19.1545 19.3708 18.7538 18.3037 18.2233 17.2599L18.188 17.1903L18.1173 17.1671C18.1055 17.1671 16.3256 16.6336 14.581 15.2883C14.027 14.8591 13.5437 14.4068 13.1194 13.9197C13.5791 14.0473 14.0624 14.0937 14.5103 14.0937C15.524 14.0937 16.4198 13.8501 16.7028 13.7689C17.3393 14.7316 17.8697 15.7174 18.188 16.68C18.1998 16.7264 18.2469 16.7612 18.3058 16.7612C18.3176 16.7612 18.3294 16.7612 18.3412 16.7612C18.4001 16.738 18.4355 16.68 18.412 16.6104C18.2351 16.0885 18.0112 15.555 17.7283 15.0215C17.8933 14.7431 18.577 13.4789 18.6595 11.8204C19.2135 13.1542 19.5318 14.5344 18.8363 16.8888L18.8127 16.9584L18.8481 17.0164C18.8598 17.0279 19.3196 17.8978 19.7911 19.4752C19.8972 19.7883 20.1565 19.3824 20.1565 19.278C20.1565 18.7793 20.18 17.4107 20.5337 15.903C20.6752 18.0834 21.5356 19.1156 21.795 19.3708C21.5356 19.8347 21.2292 20.2522 20.8991 20.5886C20.852 20.6349 20.852 20.7046 20.8991 20.751C20.9227 20.7741 20.9462 20.7857 20.9816 20.7857C21.017 20.7857 21.0405 20.7741 21.0641 20.751C21.2174 20.5886 21.3706 20.4146 21.512 20.2174C21.6535 20.2406 21.9364 20.2986 22.3372 20.2986C22.8322 20.2986 23.4924 20.2174 24.1642 19.9159C23.4099 21.0177 22.3136 21.9803 20.8873 22.7922C20.8755 22.7922 20.5926 22.8734 20.6162 23.6273C20.6398 23.8476 20.6633 24.0796 20.6869 24.3116C20.7694 25.2626 20.8048 26.3528 20.7577 27.5474C20.7812 27.8838 21.123 27.733 21.1584 27.6286C21.2763 27.2922 21.5828 26.5152 22.1368 25.6453C21.8539 27.1995 22.1485 28.2201 22.2547 28.5333C21.9717 28.7188 21.6889 28.8812 21.406 29.0204C21.347 29.0552 21.3235 29.1248 21.3588 29.1712C21.3824 29.2059 21.4177 29.2291 21.4649 29.2291C21.4885 29.2291 21.5003 29.2291 21.5238 29.2176C22.3725 28.7884 23.2094 28.1853 23.9992 27.501C24.176 27.6402 24.6593 27.9302 25.5787 27.9302C25.8381 27.9302 26.1327 27.907 26.4628 27.849C25.3666 29.1712 23.5631 30.6093 20.8402 30.7717C20.8402 30.7717 20.5573 30.7253 20.4158 31.2008C20.404 31.2472 20.404 31.2936 20.3922 31.3516C20.2272 32.407 19.9915 33.5089 19.6732 34.6686C19.6732 34.6803 19.6732 34.6803 19.6732 34.6803C19.6732 34.7035 19.6614 34.7267 19.6496 34.7498C19.6496 34.7498 19.6496 34.7498 19.6496 34.7615C19.5317 35.3529 19.9207 35.179 19.9443 35.1326C20.1329 34.8542 20.8166 33.8684 22.0307 32.8593C21.6064 34.1236 21.901 35.3877 21.96 35.5965C21.3117 35.8749 20.6515 36.1068 19.9915 36.2576C19.9325 36.2692 19.8853 36.3388 19.909 36.3968C19.9207 36.4548 19.9679 36.4896 20.0268 36.4896C20.0386 36.4896 20.0504 36.4896 20.0504 36.4896C20.2979 36.4316 20.5573 36.362 20.8048 36.2808C20.8873 36.6287 21.1938 37.545 22.1604 37.9045C21.2409 38.0437 20.2037 38.0669 19.0131 37.9509C19.0131 37.9509 18.7302 37.9277 18.577 38.1133C17.9758 39.7138 17.2332 41.384 16.302 43.1121L16.0545 43.634C16.0191 43.7152 15.9719 43.7964 15.9248 43.9007C15.8894 43.9703 15.9012 44.0515 15.9366 44.1095C16.1251 44.4459 17.74 44.8866 25.0129 45.8724C25.3547 45.9188 25.6259 45.9536 25.7673 45.9768C25.8734 45.9884 25.9795 46 26.0856 46C26.4039 46 26.6632 45.9188 26.8754 45.7564C27.229 45.4781 27.2526 45.049 27.2526 45.049C27.2644 44.6547 27.4176 44.2603 27.6887 43.9587C27.8419 43.7848 28.0188 43.6572 28.1956 43.6108C28.4667 43.5296 28.7731 43.5992 29.0796 43.6804L29.115 43.692C29.9873 43.9007 30.9303 44.0283 32.0855 44.0979H33.1581C33.6532 44.0979 34.1954 43.9936 34.8437 43.7732C35.4684 43.5644 35.9635 43.2281 36.2818 42.8105C36.5529 42.451 36.7297 41.9987 36.8122 41.4535C36.8829 40.978 36.9065 40.5025 36.8829 40.0386C36.8712 39.8066 36.8004 39.5863 36.7297 39.3775C36.6708 39.2035 36.6118 39.0296 36.5882 38.8672C36.5765 38.7512 36.5882 38.6468 36.6236 38.5656C36.659 38.496 36.7179 38.4264 36.8004 38.3568C36.8594 38.2988 36.9301 38.2293 36.9772 38.1597C37.0597 38.0437 37.1776 37.9509 37.2955 37.8465C37.3427 37.8118 37.3898 37.777 37.4252 37.7306C37.6727 37.5102 37.8142 37.2898 37.8377 37.0695C37.8613 36.8955 37.8142 36.7447 37.767 36.6172C37.6374 36.2112 37.3898 35.8169 37.0833 35.4921C37.2365 35.3414 37.3427 35.1558 37.437 34.9702C37.5077 34.831 37.5902 34.7035 37.6727 34.5875C37.767 34.4715 37.8142 34.3323 37.8259 34.1699C37.8377 34.0192 37.8142 33.88 37.7906 33.7756C37.7199 33.4509 37.2719 32.4186 37.1776 32.2215C37.1069 32.0939 37.0126 31.8503 37.1187 31.688C37.213 31.5372 37.437 31.4908 37.6138 31.5024C37.7317 31.514 37.8377 31.5372 37.9556 31.5604C38.0852 31.5836 38.2149 31.6183 38.3564 31.63C38.8043 31.6647 39.264 31.4792 39.5705 31.1545C39.9005 30.8529 40.0538 30.4006 39.9831 29.9599ZM10.9151 36.4548C9.88956 35.8169 9.14698 35.0978 8.59298 34.4367C8.64011 34.4367 8.67548 34.4367 8.72261 34.4367C9.47699 34.4367 10.0664 34.0888 10.2668 33.9612C11.0447 34.5179 11.9524 35.1094 12.9543 35.6661C12.7304 35.8981 11.9759 36.5707 10.9151 36.4548ZM11.2923 31.0501C12.5064 32.4998 11.9288 34.2511 11.752 34.6918C10.9033 34.1468 10.1371 33.6016 9.50061 33.1145C9.61849 32.7898 9.98387 31.6532 9.4063 30.9109C10.0664 30.8993 10.7029 30.9457 11.2923 31.0501ZM9.08805 30.9109C9.72455 31.4908 9.44167 32.5694 9.30018 32.9637C8.12148 32.0475 7.40242 31.3516 7.33167 31.282C7.64998 31.0616 8.23935 30.9457 9.08805 30.9109ZM7.16667 31.4444C7.2138 31.4908 7.9918 32.2447 9.26486 33.2305C9.27662 33.2421 9.28843 33.2537 9.31199 33.2653C9.54774 33.4393 9.7953 33.6364 10.0546 33.822C9.78349 33.9844 9.13518 34.2975 8.39255 34.1815C8.03892 33.7292 7.76785 33.3117 7.56742 32.9869L7.47316 32.8478C7.08417 32.2447 6.96629 31.7923 7.13129 31.5024C7.1431 31.4792 7.15486 31.456 7.16667 31.4444ZM14.5103 36.2112C13.6026 35.7821 12.7421 35.3065 11.9642 34.8194C12.1174 34.4367 12.7539 32.6738 11.6459 31.1196C12.7186 31.3516 13.6851 31.7691 14.5103 32.3838C15.0171 34.1815 14.6399 35.7705 14.5103 36.2112ZM15.8894 30.3425C15.8658 30.3425 15.8423 30.3542 15.8305 30.3658C14.5928 30.041 13.6498 29.4727 12.9308 28.8C13.1429 28.8464 13.3551 28.858 13.5437 28.858C14.6281 28.858 15.4297 28.3129 15.6536 28.1389C16.1016 28.3941 16.5731 28.6377 17.0564 28.8464C17.0681 28.8464 17.0681 28.858 17.08 28.858C17.08 28.858 17.08 28.858 17.0917 28.858C17.4336 28.9972 17.7872 29.1248 18.1526 29.2291C17.9051 29.5423 17.186 30.331 15.8894 30.3425ZM13.4612 23.8825C14.192 25.0306 13.9916 26.2252 13.8856 26.6544C12.1174 25.2626 10.9741 23.8476 10.9504 23.8244C11.1626 23.6737 11.5516 23.6389 12.1999 23.6969C12.6361 23.7201 13.0486 23.7896 13.4612 23.8825ZM10.7972 23.9984C10.9387 24.1724 11.5988 24.9495 12.6243 25.8889C12.2471 25.9469 11.4691 26.0049 10.9504 25.5409C10.9033 25.4018 10.8679 25.2626 10.8444 25.1466C10.7029 24.6015 10.6911 24.2304 10.7972 23.9984ZM12.141 26.1556C12.4593 26.1556 12.7186 26.1093 12.8364 26.0745C13.1547 26.3528 13.4966 26.6428 13.8619 26.9211C13.8738 26.9443 13.8973 26.9559 13.9209 26.9675C14.3924 27.3271 14.8993 27.6866 15.4415 28.0113C15.0761 28.2665 13.9563 28.916 12.6125 28.4753C11.8227 27.6286 11.3512 26.6776 11.0801 25.9005C11.4102 26.0976 11.8109 26.1556 12.141 26.1556ZM17.0328 28.5797C15.9483 28.1042 14.9582 27.4663 14.0977 26.8167C14.192 26.4804 14.4867 25.2394 13.7913 23.9636C14.7696 24.2304 15.6536 24.6595 16.4316 25.1466C17.2803 26.7704 17.1153 28.1621 17.0328 28.5797ZM13.6969 22.2355C13.6851 22.2355 13.6616 22.2355 13.6498 22.2355C12.5418 21.6904 11.9052 20.9017 11.3866 20.2058C11.4809 20.2174 11.5752 20.229 11.6813 20.229C12.1174 20.229 12.5771 20.1131 12.7068 20.0782C13.3079 20.345 13.8856 20.577 14.4278 20.7741C14.4396 20.7857 14.4513 20.7857 14.4631 20.7857C15.0643 20.9945 15.6183 21.1685 16.1251 21.3077C15.8187 21.586 14.9936 22.2355 13.6969 22.2355ZM12.9543 17.805C14.1331 18.2225 14.3334 19.9507 14.3688 20.4958C13.2608 20.0899 11.9996 19.5332 10.6676 18.7793C10.6557 18.7793 10.6557 18.7793 10.644 18.7677C10.809 18.4429 11.6106 18.153 12.9543 17.805ZM12.3532 19.9159C12.0113 19.9855 11.4927 20.0435 11.198 19.9159C11.1862 19.9159 11.1744 19.9043 11.1626 19.9043C11.0801 19.7883 10.9976 19.6723 10.9151 19.5679C10.7383 19.3476 10.6322 19.162 10.6086 19.0112C11.2098 19.3592 11.7991 19.6607 12.3532 19.9159ZM17.5515 21.412C16.7853 21.2613 15.7715 21.0061 14.5928 20.5886C14.581 20.1711 14.4631 18.3733 13.2962 17.7122C13.4023 17.689 13.5083 17.6543 13.6262 17.6311C14.6046 17.3875 15.5476 17.6543 16.3727 18.1182C17.3157 19.5332 17.5161 20.9597 17.5515 21.412ZM12.8836 13.6065C12.1056 12.6091 11.587 11.5072 11.3394 10.2894C11.9759 10.6026 12.6479 10.6954 13.1901 10.6954C13.6734 10.6954 14.0506 10.6258 14.2038 10.591C15.0171 11.4841 15.8658 12.5163 16.6085 13.5949C16.0898 13.7457 14.2981 14.1632 12.8836 13.6065ZM15.6536 8.71215V8.72372C16.1605 9.82556 15.8541 11.4145 15.7008 11.9828C15.2529 11.4261 14.7932 10.8926 14.3453 10.3938C14.3334 10.3706 14.3217 10.3591 14.3099 10.3475C12.8836 8.79334 11.6341 7.6915 11.4456 7.52912C11.7049 7.38995 12.0938 7.45951 12.3885 7.5407C13.0486 7.74949 14.4042 8.13224 15.6536 8.71215ZM11.2805 7.70308C11.3277 7.73786 12.5771 8.81649 14.027 10.3823C13.5437 10.4635 12.3178 10.5794 11.2923 9.98794C11.2098 9.48922 11.1744 8.97887 11.1862 8.44537V8.42217V8.39896C11.1744 8.41059 11.0919 7.98143 11.2805 7.70308ZM17.634 14.8127C17.41 14.4184 17.1743 14.0125 16.915 13.6297C16.9031 13.6065 16.9031 13.5949 16.8913 13.5833C16.5849 13.1194 16.243 12.6671 15.9012 12.2263C15.9955 11.9016 16.4435 10.1851 15.9719 8.87448C16.9738 9.37319 17.8697 10.0111 18.2233 10.7766L18.3294 11.0085C18.3766 11.1129 18.4237 11.2289 18.4827 11.3333C18.518 12.9686 17.8815 14.3372 17.634 14.8127ZM20.793 15.1375C21.0405 14.3256 21.406 13.5253 21.901 12.8294C22.1014 13.9545 23.1505 14.5575 23.4688 14.7199C23.1623 16.1813 22.679 17.863 21.96 19.1968C21.6417 18.8604 20.7341 17.6427 20.793 15.1375ZM24.2232 11.4261C24.4589 11.5537 24.6475 11.8668 24.8244 12.4003L24.8597 12.4931C25.2015 13.4905 25.4019 14.4532 25.4491 15.3578C24.6357 16.5873 23.5749 16.8772 23.1623 16.9352C23.9403 14.4184 24.1878 11.8088 24.2232 11.4261ZM23.9874 11.3565C23.9874 11.3913 23.8695 12.7483 23.5159 14.4764C23.1505 14.2792 22.1722 13.6413 22.1132 12.5627C22.3254 12.2959 22.5611 12.0524 22.8322 11.832C23.3273 11.4725 23.7045 11.3101 23.9992 11.3449C23.9874 11.3565 23.9874 11.3565 23.9874 11.3565ZM21.7124 20.0551C22.2782 19.2432 22.7144 18.2225 23.068 17.1787C23.398 17.144 24.5179 16.9584 25.4491 15.7406C25.4726 17.144 25.1308 18.4313 24.4589 19.5679C23.3155 20.229 22.1486 20.1246 21.7124 20.0551ZM22.5494 25.1582C23.1152 24.3695 23.8695 23.5577 24.8597 22.943C24.2703 24.4855 24.9894 25.7845 25.2133 26.1209C24.3882 26.9675 23.4805 27.791 22.5258 28.4405C22.3961 28.0577 22.1132 26.8747 22.5494 25.1582ZM28.6671 22.2587C28.7496 22.5138 28.7849 23.059 28.4313 24.2072C28.0069 24.5204 27.3822 24.416 27.0993 24.3463C27.9362 23.3141 28.5138 22.4906 28.6671 22.2587ZM28.502 22.0731C28.4784 22.1079 27.1936 24.0448 25.3666 25.9469C25.1308 25.5641 24.4943 24.3231 25.1308 22.885C25.1426 22.8502 25.1426 22.8154 25.119 22.7806C26.0031 22.2935 27.0404 21.9688 28.2781 21.9456C28.3724 21.9571 28.4549 21.9803 28.5138 22.0383C28.5256 22.0615 28.5138 22.0615 28.502 22.0731ZM24.2232 27.3966C24.6357 27.0255 25.0365 26.6312 25.4255 26.2368C25.4255 26.2368 25.4255 26.2368 25.4373 26.2368C25.4491 26.2252 25.4609 26.2137 25.4726 26.202C26.0149 25.6338 26.5099 25.0654 26.9461 24.5435C27.0757 24.5783 27.3586 24.6595 27.6887 24.6595C27.9009 24.6595 28.1248 24.6247 28.337 24.5435C28.2427 24.8335 28.1248 25.1466 27.9716 25.5062C27.948 25.5641 27.9362 25.5989 27.9362 25.6106C27.9244 25.6338 27.5708 26.5616 26.7457 27.6402C25.2251 27.9418 24.4707 27.559 24.2232 27.3966ZM25.0837 31.0848C24.3057 32.7434 24.6593 33.8336 24.789 34.1236C23.9992 34.6455 23.1269 35.1326 22.2311 35.5385C22.1604 35.237 21.8775 33.8336 22.455 32.6042C23.1741 32.0475 24.0464 31.5024 25.0837 31.0848ZM26.5924 35.8633C24.7536 36.0488 23.952 35.179 23.7988 34.9934C24.6357 34.5179 25.4137 33.996 26.1092 33.4857C26.1917 33.5204 26.5335 33.648 27.0639 33.648C27.4176 33.648 27.8537 33.5901 28.3724 33.4161C27.9952 34.1351 27.4529 35.0398 26.5924 35.8633ZM28.6317 32.8941C28.5963 32.9637 28.5609 33.0333 28.5256 33.1145C27.4176 33.5552 26.6396 33.4161 26.3331 33.3233C27.8419 32.1867 28.8793 31.166 29.0443 31.0037C29.2329 31.3632 29.1503 31.8967 28.8321 32.4882C28.7731 32.5926 28.7024 32.7318 28.6317 32.8941ZM27.0757 32.4302C26.4864 32.9173 25.7673 33.4509 24.9776 33.9844C24.8479 33.6596 24.565 32.5694 25.3901 30.9573C25.9206 30.7601 26.4746 30.5977 27.0757 30.4701C27.0876 30.4701 27.1111 30.4701 27.1229 30.4701C26.7103 31.166 26.9697 32.1055 27.0757 32.4302ZM21.0759 36.2344C21.9364 35.9444 22.7851 35.5501 23.5867 35.1094C23.6927 35.2602 24.4236 36.13 26.0856 36.13C26.1563 36.13 26.2388 36.13 26.3096 36.1184C25.4609 36.8607 24.3175 37.4986 22.7851 37.8233C21.4885 37.6958 21.1467 36.5707 21.0759 36.2344ZM39.3347 30.9457C39.099 31.1892 38.7454 31.3284 38.4035 31.3052C38.2857 31.2936 38.1795 31.2704 38.0617 31.2472C37.932 31.224 37.8024 31.1892 37.6727 31.1777C37.3898 31.1545 37.0244 31.2356 36.8476 31.5256C36.7061 31.7575 36.7297 32.0591 36.8947 32.3838C37.0126 32.6158 37.4252 33.5901 37.4723 33.8452C37.4841 33.9264 37.5077 34.0424 37.4959 34.1468C37.4959 34.2163 37.4723 34.3091 37.4134 34.3787C37.3073 34.5179 37.2248 34.6571 37.1423 34.8078C37.0244 35.0166 36.9183 35.2254 36.7297 35.3414L36.5529 35.4689L36.7061 35.6081C37.0362 35.9096 37.2955 36.304 37.437 36.7215C37.4723 36.8143 37.4959 36.9303 37.4841 37.0347C37.4723 37.1739 37.378 37.313 37.1894 37.4754C37.154 37.5102 37.1069 37.545 37.0597 37.5798C36.9183 37.6958 36.7769 37.8118 36.6708 37.9625C36.6354 38.0089 36.5882 38.0669 36.5293 38.1133C36.435 38.2061 36.3407 38.2989 36.2818 38.4497C36.2228 38.5888 36.211 38.7396 36.2228 38.9135C36.2464 39.1223 36.3172 39.3195 36.3761 39.5051C36.4468 39.7022 36.5057 39.8878 36.5175 40.0734C36.5411 40.5141 36.5175 40.9665 36.4586 41.4188C36.3879 41.9059 36.2346 42.3002 35.9988 42.6134C35.7278 42.9729 35.2798 43.2628 34.7258 43.46C34.1129 43.6688 33.6178 43.7616 33.1581 43.7616H32.0972C30.9774 43.692 30.0462 43.5644 29.1975 43.3672L29.1621 43.3557C28.8321 43.2745 28.4549 43.1933 28.1013 43.2977C27.8537 43.3672 27.6298 43.518 27.4294 43.75C27.1111 44.1095 26.9107 45.0605 26.9107 45.0605C26.9107 45.0953 26.8754 45.3505 26.6632 45.5129C26.4746 45.6637 26.2035 45.7101 25.8381 45.652C25.6848 45.6289 25.4255 45.594 25.0837 45.5477C19.7203 44.817 16.7735 44.2951 16.302 43.9819C16.526 43.4948 16.6085 43.3208 16.6085 43.3208C17.5396 41.5811 18.2941 39.911 18.907 38.2988C19.4492 38.3568 19.9561 38.38 20.4394 38.38C26.2977 38.38 28.172 34.5411 28.9264 33.0217C29.0089 32.871 29.0678 32.7318 29.1268 32.6274C29.5393 31.8619 29.5865 31.1545 29.2564 30.6789C28.9971 30.3194 28.4077 29.925 27.0168 30.1106C25.1544 30.4817 23.6574 31.2588 22.5022 32.0939C22.4669 32.0939 22.4197 32.1171 22.3961 32.1519C22.3843 32.1635 22.3843 32.1751 22.3725 32.1867C21.347 32.9522 20.6162 33.7408 20.1683 34.2975C20.4394 33.1957 20.6515 32.1519 20.8048 31.1428C26.2624 30.8761 28.2073 25.7265 28.2309 25.6801C28.2309 25.6685 28.2427 25.6453 28.2663 25.5989C28.7967 24.3116 29.3389 22.6298 28.891 21.9224C28.7614 21.7136 28.5492 21.5976 28.2899 21.586C25.9795 21.6092 23.952 22.6878 22.4315 24.6827C21.8421 25.4598 21.4413 26.2252 21.182 26.7935C21.1938 25.8889 21.1467 25.0539 21.0877 24.3116C21.0523 23.9288 21.017 23.5577 20.9698 23.1982C23.7752 21.644 25.3784 19.5332 25.732 16.9236C26.0149 14.8243 25.4019 13.0266 25.1779 12.3539L25.1544 12.2727C24.9894 11.774 24.73 11.1825 24.2114 11.0202C23.787 10.8926 23.2802 11.0549 22.6083 11.5421C20.404 13.3629 19.9443 16.7148 19.8618 18.4313C19.5671 17.6195 19.3196 17.1091 19.2371 16.9352C20.074 14.0357 19.4021 12.4931 18.6595 10.8926V10.881C18.6477 10.8694 18.6477 10.8462 18.6359 10.8346L18.5298 10.6142C17.6575 8.68894 13.7677 7.58711 12.4946 7.21599C11.8699 7.0304 11.3984 7.07681 11.1037 7.34354C10.7029 7.70308 10.7972 8.31777 10.809 8.44537C10.7619 12.0176 12.7304 14.2908 14.4042 15.5666C16.0191 16.8076 17.6222 17.3643 17.9876 17.4803C18.3648 18.2342 18.6713 18.9997 18.9306 19.7767C17.9522 18.6517 15.8776 16.7032 13.5437 17.2715C11.4455 17.7819 10.4672 18.1066 10.2668 18.6865C10.1371 19.0692 10.3847 19.4635 10.6322 19.7651C10.7383 19.8927 10.8444 20.0435 10.9622 20.1943C11.7756 21.3077 12.8954 22.827 15.8776 23.1982C16.691 23.3025 17.3393 23.3373 17.8697 23.3373C18.8598 23.3373 19.3903 23.2097 19.6732 23.0938C19.8736 24.6363 19.8853 26.1673 19.7793 27.6402C18.907 26.5732 16.1134 23.6041 12.2353 23.3373C11.587 23.2793 10.9387 23.2793 10.6086 23.6621C10.3493 23.9636 10.3139 24.4392 10.5143 25.2162C10.7265 26.0513 11.2687 27.6286 12.5771 28.916C13.9798 30.2962 15.8541 30.9804 18.1762 30.9804C18.5534 30.9804 18.9424 30.9573 19.3432 30.9225C19.0956 32.1751 18.7892 33.3581 18.4591 34.4251C18.2351 35.1326 17.9994 35.8285 17.7636 36.478C17.575 35.8517 17.1743 34.7962 16.3845 33.7408C15.2647 32.2447 13.1429 30.4701 9.31199 30.5629C7.90929 30.5745 7.11954 30.8181 6.83661 31.34C6.61266 31.7575 6.73054 32.3143 7.20204 33.0449L7.28454 33.1841C8.25111 34.7035 10.5143 38.2177 16.9385 38.5308C15.7598 41.2564 14.6517 43.0077 14.6399 43.0309L14.5456 43.1933C14.5221 43.2281 14.3217 43.4484 12.5182 43.0657C11.4102 42.8337 10.1607 42.4742 9.41806 42.2538C9.17055 42.1842 8.97017 42.1262 8.86405 42.0914C7.56742 41.7783 7.23741 41.4188 7.16667 41.2332C7.10773 41.1056 7.15486 41.0128 7.16667 40.9896C8.12148 39.621 8.14504 37.6146 7.22561 35.6545C6.73054 34.5875 6.0351 33.6132 5.36316 32.6738C4.99778 32.1635 4.60878 31.63 4.26697 31.0848C1.35544 26.492 0.636403 20.2522 2.21592 13.5253C2.6167 11.8436 3.24143 9.67475 4.56165 7.90024C6.51835 5.26749 9.53593 4.0149 11.7284 3.42339C14.5456 2.65792 17.5161 2.54194 20.3805 2.41436C21.7242 2.35637 23.1152 2.29838 24.4354 2.64632C25.8616 3.02906 26.9932 3.89892 27.4411 4.97754C27.8066 5.85899 27.6533 6.96079 27.0757 7.67988L26.9696 7.84226C29.8929 9.60519 32.3919 12.3771 33.7003 15.4854C33.9596 16.0885 34.1836 16.7148 34.4076 17.3295C34.5255 17.6658 34.6551 18.0138 34.7848 18.3501C35.0912 19.1504 35.4802 20.1594 35.2916 21.0873C35.2445 21.2845 35.1855 21.4816 35.1148 21.6788C35.0441 21.876 34.9852 22.0731 34.938 22.2935C34.7023 23.4185 36.0932 25.1814 36.1521 25.251C36.1757 25.2742 38.0617 27.7214 39.0282 28.916C39.2876 29.2408 39.5941 29.6119 39.653 30.0294C39.6884 30.3425 39.5705 30.7021 39.3347 30.9457Z" stroke="var(--stroke-0, white)" stroke-width="0.5"/>
</g>
</g>
<defs>
<clipPath id="clip0_0_508">
<rect width="40" height="48" fill="white"/>
</clipPath>
</defs>
</svg>
