<svg width="50" height="60" viewBox="0 0 50 60" fill="none" xmlns="http://www.w3.org/2000/svg">
<path d="M48.7719 37.4498C48.6844 36.8119 48.2472 36.2755 47.912 35.8405C46.7168 34.3473 44.3849 31.2883 44.3557 31.2593C43.8893 30.6649 42.7233 28.9107 42.9274 27.9104C42.971 27.6784 43.0585 27.432 43.1314 27.2C43.2189 26.939 43.3063 26.6781 43.3646 26.4026C43.6269 25.1123 43.1314 23.7931 42.7233 22.7347C42.563 22.3143 42.4026 21.8939 42.2569 21.4734C41.98 20.7051 41.6885 19.9077 41.3678 19.1538C39.7354 15.2684 36.8496 11.905 33.2496 9.64339C33.9492 8.62851 34.1095 7.20776 33.6285 6.03345C33.0163 4.5547 31.5297 3.3659 29.6204 2.85848C27.9297 2.40905 26.1807 2.48154 24.4754 2.55403C20.9046 2.7135 17.2171 2.87298 13.6754 3.82982C10.8916 4.58369 7.05838 6.19293 4.5661 9.58537C2.8754 11.876 2.08835 14.6306 1.5928 16.7762C-0.389391 25.3008 0.528827 33.2165 4.18712 39.059C4.60983 39.7404 5.09076 40.4218 5.55721 41.0597C6.37337 42.2195 7.21873 43.4228 7.81627 44.7131C8.88026 47.0327 8.86572 49.3668 7.7726 50.9615C7.7726 50.9615 7.74339 51.0051 7.72886 51.0486C7.67052 51.1645 7.61224 51.382 7.72886 51.6575C7.94748 52.2229 8.76364 52.6868 10.1337 53.0057C10.2649 53.0347 10.4981 53.1072 10.8041 53.1942C13.8795 54.0931 15.745 54.5135 16.7508 54.5135C17.2317 54.5135 17.5524 54.325 17.6835 54.1366L17.9168 53.7451L17.9459 53.6871L18.0042 53.5712L18.1208 53.3682C18.6018 52.5418 19.4908 50.9036 20.4382 48.7289C20.4528 48.6855 20.4674 48.642 20.4819 48.613C20.8609 47.7141 20.3944 47.6996 20.3944 47.6996C17.3046 47.5692 15.0163 46.8153 13.2819 45.8584C14.5354 45.7714 15.3661 44.9305 15.5556 44.7276C16.0949 45.0176 16.6487 45.3075 17.2317 45.5829C17.2463 45.5829 17.2463 45.5975 17.2609 45.5975H17.2754C18.3103 46.0758 19.3888 46.5108 20.5111 46.8587C20.5257 46.8587 20.5402 46.8587 20.5548 46.8587C20.6131 46.8587 20.6714 46.8153 20.7005 46.7573C20.7297 46.6848 20.6859 46.5978 20.5985 46.5833C19.52 46.2499 18.4852 45.8439 17.494 45.38C17.6544 44.8871 18.1354 43.0024 17.6107 40.7552C18.1791 41.2337 18.7038 41.7846 19.1702 42.408C20.4673 44.1622 20.89 45.9599 20.9629 46.3078C20.9629 46.3078 21.2398 46.8007 21.5604 45.9744C21.575 45.9454 21.575 45.9164 21.5896 45.8874C21.9103 45.032 22.2309 44.1187 22.5224 43.1618C22.9305 41.8281 23.3094 40.3638 23.6155 38.7981C23.6155 38.7836 23.6301 38.7546 23.6301 38.7401C23.7322 38.1312 23.2803 38.2182 23.2803 38.2182C21.9248 38.3487 20.7443 38.3051 19.7094 38.1312C21.0941 37.8557 21.8228 36.9279 22.0269 36.6234C22.3184 36.6959 22.6244 36.7684 22.9305 36.8264C22.9451 36.8264 22.9451 36.8264 22.9597 36.8264C23.0325 36.8264 23.0908 36.7829 23.1054 36.7104C23.12 36.6379 23.0617 36.551 22.9888 36.5364C22.1726 36.3915 21.3856 36.1595 20.6277 35.8405C20.7297 35.3766 20.9774 33.7529 20.0738 31.7377C22.1143 33.1585 23.4115 34.8113 23.6884 35.1881C23.6884 35.1881 24.0382 35.7826 24.1111 35.4057C24.1111 35.3911 24.1111 35.3766 24.1111 35.3621C24.3152 33.2455 24.3297 31.0273 24.0528 28.7947C23.9945 28.3598 23.5281 28.4323 23.5135 28.4468C23.1637 28.6063 22.0269 28.9542 18.9807 28.5773C18.1208 28.4758 17.392 28.2873 16.7653 28.0408C18.3685 27.8669 19.3159 26.9535 19.5491 26.7071C20.1321 26.8665 20.6568 26.9825 21.0941 27.0695C21.1087 27.084 21.1378 27.084 21.1524 27.084C22.2747 27.3015 22.9305 27.3305 22.9451 27.3305C23.0179 27.3305 23.0908 27.2725 23.0908 27.1855C23.0908 27.0985 23.0325 27.0405 22.9451 27.0405C22.9305 27.0405 22.3184 27.0115 21.2835 26.8086C21.2544 26.3591 21.0795 24.7209 20.0738 22.9667C21.5459 23.9525 22.639 25.3443 22.9451 25.7647C22.9743 25.7937 23.4844 26.0257 23.3969 25.6197C23.3969 25.6197 23.3969 25.6197 23.3969 25.6052C23.3969 25.5908 23.3969 25.5762 23.3823 25.5618C23.0179 24.2135 22.5224 22.8797 21.8665 21.5749L21.8228 21.4879L21.7354 21.4589C21.7208 21.4589 19.52 20.792 17.3629 19.1103C16.6779 18.5739 16.0803 18.0085 15.5556 17.3996C16.124 17.5591 16.7216 17.6171 17.2754 17.6171C18.5289 17.6171 19.6366 17.3126 19.9864 17.2111C20.7734 18.4144 21.4293 19.6467 21.8228 20.85C21.8374 20.908 21.8957 20.9515 21.9686 20.9515C21.9832 20.9515 21.9977 20.9515 22.0123 20.9515C22.0852 20.9225 22.1289 20.85 22.0998 20.763C21.8811 20.1107 21.6042 19.4437 21.2544 18.7769C21.4584 18.4289 22.3038 16.8486 22.4058 14.7755C23.0908 16.4428 23.4844 18.168 22.6244 21.111L22.5953 21.198L22.639 21.2705C22.6536 21.2849 23.222 22.3723 23.805 24.344C23.9362 24.7354 24.2568 24.2279 24.2568 24.0975C24.2568 23.4741 24.286 21.7634 24.7232 19.8787C24.8982 22.6042 25.9621 23.8945 26.2828 24.2135C25.9621 24.7934 25.5832 25.3153 25.1751 25.7357C25.1168 25.7937 25.1168 25.8807 25.1751 25.9387C25.2042 25.9676 25.2333 25.9822 25.2771 25.9822C25.3208 25.9822 25.3499 25.9676 25.3791 25.9387C25.5686 25.7357 25.7581 25.5183 25.9329 25.2718C26.1078 25.3008 26.4577 25.3733 26.9532 25.3733C27.5653 25.3733 28.3816 25.2718 29.2123 24.8949C28.2795 26.2721 26.9241 27.4754 25.1605 28.4902C25.1459 28.4902 24.7961 28.5917 24.8253 29.5341C24.8544 29.8095 24.8836 30.0995 24.9127 30.3895C25.0147 31.5782 25.0584 32.9411 25.0002 34.4343C25.0293 34.8547 25.452 34.6662 25.4957 34.5358C25.6414 34.1153 26.0204 33.144 26.7054 32.0567C26.3556 33.9994 26.72 35.2752 26.8512 35.6666C26.5013 35.8986 26.1516 36.1015 25.8018 36.2755C25.7289 36.319 25.6998 36.406 25.7435 36.4639C25.7727 36.5074 25.8163 36.5364 25.8747 36.5364C25.9038 36.5364 25.9184 36.5364 25.9475 36.522C26.9969 35.9855 28.0317 35.2317 29.0083 34.3763C29.2269 34.5503 29.8245 34.9127 30.9613 34.9127C31.282 34.9127 31.6463 34.8837 32.0544 34.8113C30.699 36.4639 28.469 38.2617 25.1022 38.4646C25.1022 38.4646 24.7524 38.4066 24.5775 39.001C24.5629 39.059 24.5629 39.117 24.5483 39.1895C24.3443 40.5088 24.0528 41.8861 23.6593 43.3358C23.6593 43.3503 23.6593 43.3503 23.6593 43.3503C23.6593 43.3793 23.6447 43.4083 23.6301 43.4373C23.6301 43.4373 23.6301 43.4373 23.6301 43.4518C23.4843 44.1912 23.9653 43.9737 23.9945 43.9157C24.2277 43.5678 25.073 42.3355 26.5742 41.0742C26.0496 42.6545 26.4139 44.2347 26.4868 44.4956C25.6852 44.8436 24.869 45.1335 24.0528 45.322C23.9799 45.3365 23.9216 45.4235 23.9508 45.496C23.9653 45.5685 24.0237 45.6119 24.0965 45.6119C24.1111 45.6119 24.1257 45.6119 24.1257 45.6119C24.4317 45.5395 24.7524 45.4525 25.0584 45.351C25.1605 45.7859 25.5394 46.9312 26.7346 47.3807C25.5977 47.5546 24.3152 47.5836 22.8431 47.4387C22.8431 47.4387 22.4933 47.4097 22.3038 47.6416C21.5604 49.6423 20.6423 51.73 19.4908 53.8901L19.1848 54.5425C19.141 54.644 19.0828 54.7455 19.0244 54.8759C18.9807 54.9629 18.9953 55.0644 19.039 55.1369C19.2722 55.5573 21.2689 56.1082 30.2617 57.3405C30.6844 57.3985 31.0196 57.442 31.1945 57.471C31.3257 57.4855 31.4568 57.5 31.5881 57.5C31.9816 57.5 32.3022 57.3985 32.5646 57.1955C33.0018 56.8476 33.031 56.3112 33.031 56.3112C33.0456 55.8183 33.235 55.3253 33.5702 54.9484C33.7597 54.7309 33.9783 54.5715 34.197 54.5135C34.5322 54.412 34.9111 54.499 35.2901 54.6005L35.3338 54.615C36.4123 54.8759 37.5783 55.0354 39.0067 55.1224H40.333C40.9451 55.1224 41.6156 54.9919 42.4172 54.7165C43.1897 54.4555 43.8019 54.0351 44.1954 53.5132C44.5306 53.0637 44.7492 52.4983 44.8512 51.8169C44.9386 51.2225 44.9679 50.6281 44.9386 50.0482C44.9241 49.7583 44.8366 49.4828 44.7492 49.2218C44.6764 49.0044 44.6035 48.7869 44.5743 48.584C44.5597 48.439 44.5743 48.3085 44.618 48.207C44.6618 48.12 44.7346 48.0331 44.8366 47.946C44.9095 47.8736 44.997 47.7866 45.0553 47.6996C45.1573 47.5546 45.303 47.4387 45.4488 47.3082C45.5071 47.2647 45.5654 47.2212 45.6091 47.1632C45.9152 46.8877 46.0901 46.6123 46.1193 46.3368C46.1484 46.1194 46.0901 45.9309 46.0318 45.7715C45.8715 45.264 45.5654 44.7711 45.1865 44.3651C45.3759 44.1767 45.5071 43.9447 45.6237 43.7127C45.7111 43.5388 45.8131 43.3793 45.9152 43.2344C46.0318 43.0893 46.0901 42.9154 46.1046 42.7124C46.1193 42.524 46.0901 42.35 46.061 42.2195C45.9735 41.8136 45.4196 40.5233 45.303 40.2768C45.2156 40.1174 45.099 39.8129 45.2301 39.6099C45.3468 39.4215 45.6237 39.3635 45.8424 39.378C45.9881 39.3925 46.1193 39.4215 46.265 39.4504C46.4253 39.4794 46.5856 39.5229 46.7605 39.5375C47.3144 39.5809 47.8828 39.349 48.2618 38.9431C48.6699 38.5661 48.8594 38.0007 48.7719 37.4498ZM12.8301 45.5685C11.562 44.7711 10.6439 43.8722 9.95885 43.0459C10.0171 43.0459 10.0609 43.0459 10.1191 43.0459C11.0519 43.0459 11.7807 42.611 12.0285 42.4515C12.9904 43.1474 14.1127 43.8867 15.3515 44.5826C15.0746 44.8726 14.1418 45.7134 12.8301 45.5685ZM13.2965 38.8126C14.7977 40.6248 14.0835 42.8139 13.8649 43.3648C12.8155 42.6835 11.8681 42.002 11.0811 41.3931C11.2269 40.9872 11.6786 39.5665 10.9645 38.6386C11.7807 38.6241 12.5677 38.6821 13.2965 38.8126ZM10.571 38.6386C11.358 39.3635 11.0082 40.7118 10.8333 41.2047C9.37585 40.0594 8.48674 39.1895 8.39927 39.1025C8.79285 38.827 9.5216 38.6821 10.571 38.6386ZM8.19525 39.3055C8.25352 39.3635 9.2155 40.3058 10.7896 41.5381C10.8041 41.5526 10.8187 41.5671 10.8479 41.5816C11.1394 41.7991 11.4455 42.0455 11.7661 42.2775C11.4309 42.4805 10.6293 42.8719 9.71102 42.7269C9.27377 42.1615 8.9386 41.6396 8.69077 41.2337L8.57422 41.0597C8.09323 40.3058 7.94748 39.7404 8.15151 39.378C8.16611 39.349 8.18064 39.32 8.19525 39.3055ZM17.2754 45.264C16.1532 44.7276 15.0892 44.1332 14.1273 43.5243C14.3167 43.0459 15.1038 40.8423 13.7337 38.8995C15.06 39.1895 16.2552 39.7114 17.2754 40.4798C17.9022 42.7269 17.4358 44.7131 17.2754 45.264ZM18.9807 37.9282C18.9515 37.9282 18.9224 37.9427 18.9078 37.9572C17.3774 37.5513 16.2115 36.8409 15.3224 36C15.5848 36.0581 15.8471 36.0725 16.0803 36.0725C17.4212 36.0725 18.4123 35.3911 18.6892 35.1737C19.243 35.4926 19.826 35.7971 20.4236 36.0581C20.4382 36.0581 20.4382 36.0725 20.4528 36.0725C20.4528 36.0725 20.4528 36.0725 20.4673 36.0725C20.89 36.2465 21.3273 36.406 21.7791 36.5364C21.473 36.9279 20.5839 37.9137 18.9807 37.9282ZM15.9783 29.8531C16.8819 31.2883 16.6341 32.7816 16.503 33.318C14.3167 31.5782 12.903 29.8095 12.8738 29.7805C13.1361 29.5921 13.6171 29.5486 14.4188 29.6211C14.958 29.6501 15.4681 29.737 15.9783 29.8531ZM12.6844 29.998C12.8592 30.2155 13.6754 31.1868 14.9434 32.3611C14.477 32.4336 13.5151 32.5061 12.8738 31.9262C12.8155 31.7522 12.7718 31.5782 12.7426 31.4333C12.5677 30.7519 12.5531 30.288 12.6844 29.998ZM14.3459 32.6945C14.7394 32.6945 15.06 32.6366 15.2058 32.5931C15.5993 32.9411 16.022 33.3035 16.4738 33.6514C16.4884 33.6804 16.5175 33.6949 16.5467 33.7094C17.1297 34.1588 17.7564 34.6083 18.4269 35.0142C17.975 35.3332 16.5904 36.145 14.9289 35.5941C13.9524 34.5358 13.3694 33.3469 13.0341 32.3756C13.4422 32.6221 13.9378 32.6945 14.3459 32.6945ZM20.3944 35.7246C19.0536 35.1302 17.8293 34.3328 16.7653 33.5209C16.8819 33.1005 17.2463 31.5492 16.3864 29.9545C17.5961 30.288 18.6892 30.8244 19.6512 31.4333C20.7005 33.463 20.4965 35.2027 20.3944 35.7246ZM16.2698 27.7944C16.2552 27.7944 16.226 27.7944 16.2115 27.7944C14.8414 27.113 14.0544 26.1271 13.4131 25.2573C13.5297 25.2718 13.6463 25.2863 13.7775 25.2863C14.3167 25.2863 14.8851 25.1413 15.0455 25.0978C15.7888 25.4313 16.503 25.7212 17.1734 25.9676C17.188 25.9822 17.2025 25.9822 17.2171 25.9822C17.9604 26.2431 18.6455 26.4606 19.2722 26.6346C18.8933 26.9825 17.873 27.7944 16.2698 27.7944ZM15.3515 22.2563C16.809 22.7782 17.0568 24.9384 17.1005 25.6197C15.7305 25.1123 14.171 24.4165 12.524 23.4741C12.5094 23.4741 12.5094 23.4741 12.4949 23.4596C12.6989 23.0536 13.69 22.6912 15.3515 22.2563ZM14.6082 24.8949C14.1855 24.9818 13.5443 25.0543 13.1799 24.8949C13.1653 24.8949 13.1507 24.8804 13.1361 24.8804C13.0341 24.7354 12.9321 24.5904 12.8301 24.4599C12.6115 24.1845 12.4803 23.9525 12.4511 23.764C13.1945 24.1989 13.9232 24.5759 14.6082 24.8949ZM21.0358 26.765C20.0884 26.5766 18.8349 26.2576 17.3774 25.7357C17.3629 25.2138 17.2171 22.9667 15.7742 22.1403C15.9054 22.1113 16.0365 22.0678 16.1823 22.0388C17.392 21.7344 18.558 22.0678 19.5783 22.6477C20.7443 24.4165 20.992 26.1996 21.0358 26.765ZM15.2641 17.0081C14.3021 15.7614 13.6609 14.3841 13.3548 12.8618C14.1418 13.2533 14.9726 13.3692 15.643 13.3692C16.2406 13.3692 16.707 13.2823 16.8965 13.2387C17.9022 14.3551 18.9515 15.6454 19.8698 16.9937C19.2285 17.1821 17.0131 17.704 15.2641 17.0081ZM18.6892 10.8902V10.9047C19.3159 12.2819 18.937 14.2681 18.7475 14.9785C18.1937 14.2826 17.6253 13.6157 17.0714 12.9923C17.0568 12.9633 17.0423 12.9488 17.0277 12.9344C15.2641 10.9917 13.7191 9.61438 13.486 9.4114C13.8066 9.23743 14.2875 9.32439 14.6519 9.42587C15.4681 9.68686 17.1443 10.1653 18.6892 10.8902ZM13.2819 9.62885C13.3402 9.67233 14.8851 11.0206 16.6779 12.9778C16.0803 13.0793 14.5645 13.2243 13.2965 12.4849C13.1945 11.8615 13.1507 11.2236 13.1653 10.5567V10.5277V10.4987C13.1507 10.5132 13.0487 9.97679 13.2819 9.62885ZM21.1378 18.5159C20.8609 18.023 20.5694 17.5156 20.2488 17.0372C20.2342 17.0081 20.2342 16.9937 20.2196 16.9791C19.8406 16.3993 19.4179 15.8338 18.9953 15.2829C19.1119 14.877 19.6658 12.7314 19.0828 11.0931C20.3216 11.7165 21.4293 12.5139 21.8665 13.4707L21.9977 13.7607C22.056 13.8912 22.1143 14.0361 22.1872 14.1666C22.2309 16.2108 21.4439 17.9215 21.1378 18.5159ZM25.0439 18.9218C25.3499 17.907 25.8018 16.9067 26.4139 16.0368C26.6617 17.4431 27.9588 18.1969 28.3524 18.3999C27.9734 20.2266 27.3758 22.3288 26.4868 23.996C26.0933 23.5755 24.971 22.0534 25.0439 18.9218ZM29.2852 14.2826C29.5767 14.4421 29.8099 14.8335 30.0285 15.5004L30.0722 15.6164C30.4949 16.8632 30.7427 18.0665 30.801 19.1973C29.7953 20.7341 28.4836 21.0965 27.9734 21.169C28.9354 18.023 29.2415 14.761 29.2852 14.2826ZM28.9937 14.1956C28.9937 14.2391 28.8479 15.9353 28.4107 18.0954C27.9588 17.849 26.7492 17.0516 26.6763 15.7033C26.9386 15.3699 27.2301 15.0655 27.5653 14.79C28.1775 14.3406 28.6439 14.1376 29.0083 14.1811C28.9937 14.1956 28.9937 14.1956 28.9937 14.1956ZM26.1807 25.0689C26.8803 24.054 27.4196 22.7782 27.8568 21.4734C28.2649 21.43 29.6496 21.198 30.801 19.6757C30.8301 21.43 30.4075 23.0392 29.5767 24.4599C28.1629 25.2863 26.72 25.1558 26.1807 25.0689ZM27.2156 31.4478C27.9152 30.4619 28.8479 29.4471 30.0722 28.6788C29.3435 30.6069 30.2326 32.2306 30.5095 32.6511C29.4892 33.7094 28.367 34.7387 27.1864 35.5506C27.0261 35.0722 26.6763 33.5934 27.2156 31.4478ZM34.78 27.8234C34.882 28.1423 34.9257 28.8237 34.4885 30.259C33.9637 30.6504 33.1912 30.5199 32.8415 30.4329C33.8763 29.1427 34.5905 28.1133 34.78 27.8234ZM34.5759 27.5914C34.5467 27.6349 32.9581 30.056 30.699 32.4336C30.4075 31.9552 29.6204 30.4039 30.4075 28.6063C30.4221 28.5627 30.4221 28.5193 30.3929 28.4758C31.486 27.8669 32.7686 27.461 34.299 27.432C34.4156 27.4464 34.5176 27.4754 34.5905 27.5479C34.6051 27.5769 34.5905 27.5769 34.5759 27.5914ZM29.2852 34.2458C29.7953 33.7819 30.2908 33.289 30.7718 32.796C30.7718 32.796 30.7718 32.796 30.7864 32.796C30.801 32.7816 30.8156 32.7671 30.8301 32.7526C31.5006 32.0422 32.1127 31.3318 32.652 30.6794C32.8123 30.7229 33.1621 30.8244 33.5702 30.8244C33.8326 30.8244 34.1095 30.7809 34.3718 30.6794C34.2552 31.0419 34.1095 31.4333 33.92 31.8827C33.8909 31.9552 33.8763 31.9987 33.8763 32.0132C33.8617 32.0422 33.4245 33.202 32.4042 34.5503C30.5241 34.9272 29.5913 34.4488 29.2852 34.2458ZM30.3492 38.856C29.3872 40.9292 29.8245 42.292 29.9848 42.6545C29.0083 43.3069 27.9297 43.9157 26.822 44.4232C26.7346 44.0462 26.3848 42.292 27.0989 40.7552C27.988 40.0594 29.0666 39.378 30.3492 38.856ZM32.2147 44.8291C29.9411 45.061 28.95 43.9737 28.7605 43.7417C29.7953 43.1474 30.7572 42.495 31.6172 41.8571C31.7192 41.9006 32.1419 42.0601 32.7977 42.0601C33.235 42.0601 33.7742 41.9876 34.4156 41.7701C33.9492 42.6689 33.2787 43.7998 32.2147 44.8291ZM34.7362 41.1177C34.6925 41.2047 34.6487 41.2916 34.6051 41.3931C33.235 41.944 32.2731 41.7701 31.8941 41.6541C33.7597 40.2333 35.0423 38.9575 35.2463 38.7546C35.4796 39.204 35.3775 39.8709 34.984 40.6103C34.9111 40.7408 34.8237 40.9147 34.7362 41.1177ZM35.0715 38.5226C35.0569 38.5371 34.2115 39.3925 32.8852 40.4943L32.9872 38.0732C33.9929 37.9572 34.7071 38.1022 35.0715 38.5226C35.0715 38.5081 35.0715 38.5081 35.0715 38.5226ZM32.8123 40.5378C32.0836 41.1467 31.1945 41.8136 30.218 42.4805C30.0577 42.0745 29.7078 40.7118 30.7281 38.6966C31.384 38.4502 32.069 38.2472 32.8123 38.0877C32.8269 38.0877 32.8561 38.0877 32.8706 38.0877C32.3605 38.9575 32.6812 40.1319 32.8123 40.5378ZM25.3937 45.293C26.4577 44.9305 27.5071 44.4376 28.4982 43.8867C28.6293 44.0752 29.533 45.1625 31.5881 45.1625C31.6755 45.1625 31.7775 45.1625 31.865 45.148C30.8156 46.0759 29.4018 46.8732 27.5071 47.2792C25.9038 47.1197 25.4812 45.7134 25.3937 45.293ZM47.9703 38.6821C47.6788 38.9865 47.2415 39.1605 46.8189 39.1315C46.6731 39.117 46.5419 39.088 46.3961 39.059C46.2359 39.03 46.0755 38.9865 45.9152 38.9721C45.5654 38.9431 45.1136 39.0446 44.895 39.407C44.72 39.6969 44.7492 40.0738 44.9533 40.4798C45.099 40.7697 45.6091 41.9876 45.6674 42.3065C45.682 42.408 45.7111 42.553 45.6966 42.6835C45.6966 42.7704 45.6674 42.8864 45.5945 42.9734C45.4634 43.1474 45.3614 43.3213 45.2593 43.5098C45.1136 43.7708 44.9824 44.0317 44.7492 44.1767L44.5306 44.3361L44.72 44.5101C45.1281 44.8871 45.4488 45.38 45.6237 45.9019C45.6674 46.0179 45.6966 46.1629 45.682 46.2934C45.6674 46.4673 45.5509 46.6413 45.3176 46.8443C45.2739 46.8877 45.2156 46.9312 45.1573 46.9747C44.9824 47.1197 44.8075 47.2647 44.6764 47.4531C44.6326 47.5112 44.5743 47.5836 44.5014 47.6416C44.3848 47.7576 44.2682 47.8736 44.1954 48.0621C44.1225 48.236 44.1079 48.4245 44.1225 48.6419C44.1516 48.9029 44.2391 49.1494 44.312 49.3813C44.3994 49.6278 44.4723 49.8598 44.4869 50.0917C44.516 50.6426 44.4869 51.2081 44.414 51.7735C44.3265 52.3823 44.137 52.8753 43.8455 53.2667C43.5103 53.7161 42.9565 54.0785 42.2715 54.325C41.5136 54.586 40.9014 54.7019 40.333 54.7019H39.0212C37.6366 54.615 36.4852 54.4555 35.4358 54.209L35.3921 54.1946C34.984 54.0931 34.5176 53.9916 34.0803 54.1221C33.7742 54.209 33.4973 54.3975 33.2496 54.6875C32.8561 55.1369 32.6083 56.3257 32.6083 56.3257C32.6083 56.3692 32.5646 56.6882 32.3022 56.8911C32.069 57.0796 31.7338 57.1376 31.282 57.065C31.0925 57.0361 30.7718 56.9926 30.3492 56.9346C23.7176 56.0212 20.0738 55.3689 19.4908 54.9774C19.7678 54.3685 19.8698 54.151 19.8698 54.151C21.0212 51.9764 21.954 49.8887 22.7119 47.8736C23.3823 47.946 24.0091 47.975 24.6067 47.975C31.8504 47.975 34.1678 43.1764 35.1006 41.2772C35.2026 41.0887 35.2755 40.9147 35.3484 40.7843C35.8585 39.8274 35.9168 38.9431 35.5087 38.3487C35.1881 37.8992 34.4593 37.4063 32.7395 37.6383C30.4366 38.1022 28.5856 39.0736 27.1572 40.1174C27.1135 40.1174 27.0552 40.1463 27.0261 40.1899C27.0115 40.2043 27.0115 40.2189 26.9969 40.2333C25.7289 41.1902 24.8253 42.176 24.2714 42.8719C24.6067 41.4946 24.869 40.1899 25.0584 38.9285C31.8067 38.5951 34.2115 32.1582 34.2407 32.1001C34.2407 32.0857 34.2552 32.0567 34.2844 31.9987C34.9402 30.3895 35.6107 28.2873 35.0569 27.403C34.8966 27.142 34.6342 26.997 34.3136 26.9825C31.4568 27.0115 28.95 28.3598 27.0698 30.8534C26.3411 31.8247 25.8455 32.7816 25.5248 33.4919C25.5394 32.3611 25.4812 31.3173 25.4083 30.3895C25.3645 29.911 25.3208 29.4471 25.2625 28.9977C28.7313 27.055 30.7136 24.4165 31.1508 21.1545C31.5006 18.5304 30.7427 16.2833 30.4657 15.4424L30.4366 15.3409C30.2326 14.7175 29.9119 13.9782 29.2706 13.7752C28.7459 13.6157 28.1192 13.8187 27.2884 14.4276C24.5629 16.7037 23.9945 20.8935 23.8924 23.0392C23.5281 22.0243 23.222 21.3864 23.12 21.169C24.1548 17.5446 23.324 15.6164 22.4058 13.6157V13.6012C22.3913 13.5867 22.3913 13.5577 22.3767 13.5432L22.2455 13.2678C21.1669 10.8612 16.3572 9.48389 14.7831 9.01999C14.0106 8.78801 13.4276 8.84602 13.0633 9.17942C12.5677 9.62885 12.6844 10.3972 12.6989 10.5567C12.6406 15.022 15.0746 17.8635 17.1443 19.4583C19.141 21.0095 21.1232 21.7054 21.575 21.8504C22.0414 22.7927 22.4204 23.7496 22.741 24.7209C21.5313 23.3146 18.9661 20.879 16.0803 21.5894C13.4859 22.2273 12.2762 22.6332 12.0285 23.3581C11.8681 23.8365 12.1742 24.3294 12.4803 24.7064C12.6115 24.8659 12.7426 25.0543 12.8884 25.2428C13.894 26.6346 15.2787 28.5338 18.9661 28.9977C19.9718 29.1282 20.7734 29.1717 21.4293 29.1717C22.6536 29.1717 23.3094 29.0122 23.6593 28.8672C23.907 30.7954 23.9216 32.7091 23.7904 34.5503C22.7119 33.2165 19.2576 29.5051 14.4625 29.1717C13.6609 29.0992 12.8592 29.0992 12.4511 29.5776C12.1305 29.9545 12.0868 30.549 12.3345 31.5203C12.5969 32.5641 13.2674 34.5358 14.8851 36.145C16.6195 37.8702 18.937 38.7256 21.8083 38.7256C22.2747 38.7256 22.7556 38.6966 23.2512 38.6531C22.9451 40.2189 22.5662 41.6976 22.158 43.0314C21.8811 43.9157 21.5896 44.7856 21.2981 45.5975C21.0649 44.8146 20.5694 43.4953 19.5929 42.176C18.2083 40.3058 15.5848 38.0877 10.8479 38.2036C9.11348 38.2182 8.13697 38.5226 7.78713 39.175C7.51023 39.6969 7.65598 40.3928 8.23898 41.3062L8.34099 41.4801C9.53613 43.3793 12.3345 47.7721 20.2779 48.1636C18.8204 51.5705 17.4503 53.7596 17.4358 53.7886L17.3192 53.9916C17.29 54.0351 17.0423 54.3105 14.8123 53.8321C13.4422 53.5422 11.8973 53.0927 10.979 52.8173C10.673 52.7303 10.4252 52.6578 10.294 52.6143C8.69077 52.2229 8.28272 51.7734 8.19525 51.5415C8.12237 51.382 8.18064 51.266 8.19525 51.237C9.37585 49.5263 9.40498 47.0182 8.26812 44.5681C7.65598 43.2344 6.79608 42.0165 5.96526 40.8423C5.51347 40.2043 5.03248 39.5375 4.60983 38.856C1.0098 33.115 0.120734 25.3153 2.07377 16.9067C2.56932 14.8045 3.34179 12.0934 4.97421 9.8753C7.39362 6.58436 11.1248 5.01863 13.8358 4.27924C17.3192 3.3224 20.992 3.17743 24.5338 3.01796C26.1953 2.94547 27.9152 2.87298 29.5476 3.3079C31.3111 3.78633 32.7103 4.87365 33.2641 6.22193C33.716 7.32374 33.5265 8.70099 32.8123 9.59984L32.6811 9.80282C36.2957 12.0065 39.3856 15.4714 41.0035 19.3568C41.3241 20.1107 41.601 20.8935 41.878 21.6619C42.0237 22.0823 42.184 22.5173 42.3444 22.9377C42.7233 23.938 43.2043 25.1993 42.971 26.3591C42.9128 26.6056 42.8399 26.852 42.7524 27.0985C42.665 27.3449 42.5921 27.5914 42.5338 27.8669C42.2423 29.2731 43.9621 31.4768 44.035 31.5638C44.0642 31.5928 46.3961 34.6518 47.5913 36.145C47.912 36.551 48.2909 37.0149 48.3638 37.5368C48.4075 37.9282 48.2618 38.3776 47.9703 38.6821Z" fill="white" fill-opacity="0.4"/>
<path d="M35.0715 38.5226C35.0569 38.5371 34.2115 39.3925 32.8852 40.4943L32.9872 38.0732C33.9929 37.9572 34.7071 38.1022 35.0715 38.5226ZM35.0715 38.5226C35.0715 38.5081 35.0715 38.5081 35.0715 38.5226ZM48.7719 37.4498C48.6844 36.8119 48.2472 36.2755 47.912 35.8405C46.7168 34.3473 44.3849 31.2883 44.3557 31.2593C43.8893 30.6649 42.7233 28.9107 42.9274 27.9104C42.971 27.6784 43.0585 27.432 43.1314 27.2C43.2189 26.939 43.3063 26.6781 43.3646 26.4026C43.6269 25.1123 43.1314 23.7931 42.7233 22.7347C42.563 22.3143 42.4026 21.8939 42.2569 21.4734C41.98 20.7051 41.6885 19.9077 41.3678 19.1538C39.7354 15.2684 36.8496 11.905 33.2496 9.64339C33.9492 8.62851 34.1095 7.20776 33.6285 6.03345C33.0164 4.5547 31.5297 3.3659 29.6204 2.85848C27.9297 2.40905 26.1807 2.48154 24.4754 2.55403C20.9046 2.7135 17.2171 2.87298 13.6754 3.82982C10.8916 4.58369 7.05838 6.19293 4.5661 9.58537C2.8754 11.876 2.08835 14.6306 1.5928 16.7762C-0.389391 25.3008 0.528827 33.2165 4.18712 39.059C4.60983 39.7404 5.09076 40.4218 5.55721 41.0597C6.37337 42.2195 7.21873 43.4228 7.81627 44.7131C8.88026 47.0327 8.86572 49.3668 7.7726 50.9615C7.7726 50.9615 7.74339 51.0051 7.72886 51.0486C7.67052 51.1645 7.61224 51.382 7.72886 51.6575C7.94748 52.2229 8.76364 52.6868 10.1337 53.0057C10.2649 53.0347 10.4981 53.1072 10.8041 53.1942C13.8795 54.0931 15.745 54.5135 16.7508 54.5135C17.2317 54.5135 17.5524 54.325 17.6835 54.1366L17.9168 53.7451L17.9459 53.6871L18.0042 53.5712L18.1208 53.3682C18.6018 52.5418 19.4908 50.9036 20.4382 48.7289C20.4528 48.6855 20.4674 48.642 20.4819 48.613C20.8609 47.7141 20.3944 47.6996 20.3944 47.6996C17.3046 47.5692 15.0163 46.8153 13.2819 45.8584C14.5354 45.7714 15.3661 44.9305 15.5556 44.7276C16.0949 45.0176 16.6487 45.3075 17.2317 45.5829C17.2463 45.5829 17.2463 45.5975 17.2609 45.5975H17.2754C18.3103 46.0758 19.3888 46.5108 20.5111 46.8587C20.5257 46.8587 20.5402 46.8587 20.5548 46.8587C20.6131 46.8587 20.6714 46.8153 20.7005 46.7573C20.7297 46.6848 20.6859 46.5978 20.5985 46.5833C19.52 46.2499 18.4852 45.8439 17.494 45.38C17.6544 44.8871 18.1354 43.0024 17.6107 40.7553C18.1791 41.2337 18.7038 41.7846 19.1702 42.408C20.4673 44.1622 20.89 45.9599 20.9629 46.3078C20.9629 46.3078 21.2398 46.8007 21.5604 45.9744C21.575 45.9454 21.575 45.9164 21.5896 45.8874C21.9103 45.032 22.2309 44.1187 22.5224 43.1618C22.9305 41.8281 23.3094 40.3638 23.6155 38.7981C23.6155 38.7836 23.6301 38.7546 23.6301 38.7401C23.7322 38.1312 23.2803 38.2182 23.2803 38.2182C21.9248 38.3487 20.7443 38.3051 19.7094 38.1312C21.0941 37.8557 21.8228 36.9279 22.0269 36.6234C22.3184 36.6959 22.6244 36.7684 22.9305 36.8264C22.9451 36.8264 22.9451 36.8264 22.9597 36.8264C23.0325 36.8264 23.0908 36.7829 23.1054 36.7104C23.12 36.6379 23.0617 36.551 22.9888 36.5364C22.1726 36.3915 21.3856 36.1595 20.6277 35.8405C20.7297 35.3766 20.9774 33.7529 20.0738 31.7377C22.1143 33.1585 23.4115 34.8113 23.6884 35.1881C23.6884 35.1881 24.0382 35.7826 24.1111 35.4056C24.1111 35.3911 24.1111 35.3766 24.1111 35.3621C24.3152 33.2455 24.3297 31.0273 24.0528 28.7947C23.9945 28.3598 23.5281 28.4323 23.5135 28.4468C23.1637 28.6063 22.0269 28.9542 18.9807 28.5773C18.1208 28.4758 17.392 28.2873 16.7653 28.0408C18.3685 27.8669 19.3159 26.9535 19.5491 26.7071C20.1321 26.8665 20.6568 26.9825 21.0941 27.0695C21.1087 27.084 21.1378 27.084 21.1524 27.084C22.2747 27.3015 22.9305 27.3305 22.9451 27.3305C23.0179 27.3305 23.0908 27.2725 23.0908 27.1855C23.0908 27.0985 23.0325 27.0405 22.9451 27.0405C22.9305 27.0405 22.3184 27.0115 21.2835 26.8086C21.2544 26.3591 21.0795 24.7209 20.0738 22.9667C21.5459 23.9525 22.639 25.3443 22.9451 25.7647C22.9743 25.7937 23.4844 26.0257 23.3969 25.6197C23.3969 25.6197 23.3969 25.6197 23.3969 25.6052C23.3969 25.5908 23.3969 25.5762 23.3823 25.5618C23.0179 24.2135 22.5224 22.8797 21.8665 21.5749L21.8228 21.4879L21.7354 21.4589C21.7208 21.4589 19.52 20.792 17.3629 19.1103C16.6779 18.5739 16.0803 18.0085 15.5556 17.3996C16.124 17.5591 16.7216 17.6171 17.2754 17.6171C18.5289 17.6171 19.6366 17.3126 19.9864 17.2111C20.7734 18.4144 21.4293 19.6467 21.8228 20.85C21.8374 20.908 21.8957 20.9515 21.9686 20.9515C21.9832 20.9515 21.9977 20.9515 22.0123 20.9515C22.0852 20.9225 22.1289 20.85 22.0998 20.763C21.8811 20.1107 21.6042 19.4437 21.2544 18.7769C21.4584 18.4289 22.3038 16.8486 22.4058 14.7755C23.0908 16.4428 23.4844 18.168 22.6244 21.111L22.5953 21.198L22.639 21.2705C22.6536 21.2849 23.222 22.3723 23.805 24.344C23.9362 24.7354 24.2568 24.2279 24.2568 24.0975C24.2568 23.4741 24.286 21.7634 24.7232 19.8787C24.8982 22.6042 25.9621 23.8945 26.2828 24.2135C25.9621 24.7934 25.5832 25.3153 25.1751 25.7357C25.1168 25.7937 25.1168 25.8807 25.1751 25.9387C25.2042 25.9676 25.2333 25.9822 25.2771 25.9822C25.3208 25.9822 25.3499 25.9676 25.3791 25.9387C25.5686 25.7357 25.7581 25.5183 25.9329 25.2718C26.1078 25.3008 26.4577 25.3733 26.9532 25.3733C27.5653 25.3733 28.3816 25.2718 29.2123 24.8949C28.2795 26.2721 26.9241 27.4754 25.1605 28.4902C25.1459 28.4902 24.7961 28.5917 24.8253 29.5341C24.8544 29.8095 24.8836 30.0995 24.9127 30.3895C25.0147 31.5782 25.0584 32.9411 25.0002 34.4343C25.0293 34.8547 25.452 34.6662 25.4957 34.5358C25.6414 34.1153 26.0204 33.144 26.7054 32.0567C26.3556 33.9994 26.72 35.2752 26.8512 35.6666C26.5013 35.8986 26.1516 36.1015 25.8018 36.2755C25.7289 36.319 25.6998 36.406 25.7435 36.4639C25.7727 36.5074 25.8163 36.5364 25.8747 36.5364C25.9038 36.5364 25.9184 36.5364 25.9475 36.522C26.9969 35.9855 28.0317 35.2317 29.0083 34.3763C29.2269 34.5503 29.8245 34.9127 30.9613 34.9127C31.282 34.9127 31.6463 34.8837 32.0544 34.8113C30.699 36.4639 28.469 38.2617 25.1022 38.4646C25.1022 38.4646 24.7524 38.4066 24.5775 39.001C24.5629 39.059 24.5629 39.117 24.5483 39.1895C24.3443 40.5088 24.0528 41.8861 23.6593 43.3358C23.6593 43.3503 23.6593 43.3503 23.6593 43.3503C23.6593 43.3793 23.6447 43.4083 23.6301 43.4373C23.6301 43.4373 23.6301 43.4373 23.6301 43.4518C23.4843 44.1912 23.9653 43.9737 23.9945 43.9157C24.2277 43.5678 25.073 42.3355 26.5742 41.0742C26.0496 42.6545 26.4139 44.2347 26.4868 44.4956C25.6852 44.8436 24.869 45.1335 24.0528 45.322C23.9799 45.3365 23.9216 45.4235 23.9508 45.496C23.9653 45.5685 24.0237 45.6119 24.0965 45.6119C24.1111 45.6119 24.1257 45.6119 24.1257 45.6119C24.4317 45.5395 24.7524 45.4525 25.0584 45.351C25.1605 45.7859 25.5394 46.9312 26.7346 47.3807C25.5977 47.5546 24.3152 47.5836 22.8431 47.4387C22.8431 47.4387 22.4933 47.4097 22.3038 47.6416C21.5604 49.6423 20.6423 51.73 19.4908 53.8901L19.1848 54.5425C19.141 54.644 19.0828 54.7455 19.0244 54.8759C18.9807 54.9629 18.9953 55.0644 19.039 55.1369C19.2722 55.5573 21.2689 56.1082 30.2617 57.3405C30.6844 57.3985 31.0196 57.442 31.1945 57.471C31.3257 57.4855 31.4568 57.5 31.5881 57.5C31.9816 57.5 32.3022 57.3985 32.5646 57.1955C33.0018 56.8476 33.031 56.3112 33.031 56.3112C33.0456 55.8183 33.235 55.3253 33.5702 54.9484C33.7597 54.7309 33.9783 54.5715 34.197 54.5135C34.5322 54.412 34.9111 54.499 35.2901 54.6005L35.3338 54.615C36.4123 54.8759 37.5783 55.0354 39.0067 55.1224H40.333C40.9451 55.1224 41.6156 54.9919 42.4172 54.7165C43.1897 54.4555 43.8019 54.0351 44.1954 53.5132C44.5306 53.0637 44.7492 52.4983 44.8512 51.8169C44.9386 51.2225 44.9679 50.6281 44.9386 50.0482C44.9241 49.7583 44.8366 49.4828 44.7492 49.2218C44.6764 49.0044 44.6035 48.787 44.5743 48.584C44.5597 48.439 44.5743 48.3085 44.618 48.207C44.6618 48.12 44.7346 48.0331 44.8366 47.946C44.9095 47.8736 44.997 47.7866 45.0553 47.6996C45.1573 47.5546 45.303 47.4387 45.4488 47.3082C45.5071 47.2647 45.5654 47.2212 45.6091 47.1632C45.9152 46.8877 46.0901 46.6123 46.1193 46.3368C46.1484 46.1194 46.0901 45.9309 46.0318 45.7714C45.8715 45.264 45.5654 44.7711 45.1865 44.3651C45.3759 44.1767 45.5071 43.9447 45.6237 43.7127C45.7111 43.5388 45.8131 43.3793 45.9152 43.2344C46.0318 43.0893 46.0901 42.9154 46.1046 42.7124C46.1193 42.524 46.0901 42.35 46.061 42.2195C45.9735 41.8136 45.4196 40.5233 45.303 40.2768C45.2156 40.1174 45.099 39.8129 45.2301 39.6099C45.3468 39.4215 45.6237 39.3635 45.8424 39.378C45.9881 39.3925 46.1193 39.4215 46.265 39.4504C46.4253 39.4794 46.5856 39.5229 46.7605 39.5375C47.3144 39.5809 47.8828 39.349 48.2618 38.9431C48.6699 38.5661 48.8594 38.0007 48.7719 37.4498ZM12.8301 45.5685C11.562 44.7711 10.6439 43.8722 9.95885 43.0459C10.0171 43.0459 10.0609 43.0459 10.1191 43.0459C11.0519 43.0459 11.7807 42.611 12.0285 42.4515C12.9904 43.1474 14.1127 43.8867 15.3515 44.5826C15.0746 44.8726 14.1418 45.7134 12.8301 45.5685ZM13.2965 38.8126C14.7977 40.6248 14.0835 42.8139 13.8649 43.3648C12.8155 42.6835 11.8681 42.002 11.0811 41.3931C11.2269 40.9872 11.6786 39.5665 10.9645 38.6386C11.7807 38.6241 12.5677 38.6821 13.2965 38.8126ZM10.571 38.6386C11.358 39.3635 11.0082 40.7118 10.8333 41.2047C9.37585 40.0594 8.48674 39.1895 8.39927 39.1025C8.79285 38.827 9.5216 38.6821 10.571 38.6386ZM8.19525 39.3055C8.25352 39.3635 9.21549 40.3058 10.7896 41.5381C10.8041 41.5526 10.8187 41.5671 10.8479 41.5816C11.1394 41.7991 11.4455 42.0455 11.7661 42.2775C11.4309 42.4805 10.6293 42.8719 9.71102 42.7269C9.27377 42.1615 8.9386 41.6396 8.69077 41.2337L8.57422 41.0597C8.09323 40.3058 7.94748 39.7404 8.15151 39.378C8.16611 39.349 8.18064 39.32 8.19525 39.3055ZM17.2754 45.264C16.1532 44.7276 15.0892 44.1332 14.1273 43.5243C14.3167 43.0459 15.1038 40.8423 13.7337 38.8995C15.06 39.1895 16.2552 39.7114 17.2754 40.4798C17.9022 42.7269 17.4358 44.7131 17.2754 45.264ZM18.9807 37.9282C18.9515 37.9282 18.9224 37.9427 18.9078 37.9572C17.3774 37.5513 16.2115 36.8409 15.3224 36C15.5848 36.0581 15.8471 36.0725 16.0803 36.0725C17.4212 36.0725 18.4123 35.3911 18.6892 35.1737C19.243 35.4926 19.826 35.7971 20.4236 36.0581C20.4382 36.0581 20.4382 36.0725 20.4528 36.0725C20.4528 36.0725 20.4528 36.0725 20.4673 36.0725C20.89 36.2465 21.3273 36.406 21.7791 36.5364C21.473 36.9279 20.5839 37.9137 18.9807 37.9282ZM15.9783 29.8531C16.8819 31.2883 16.6341 32.7816 16.503 33.318C14.3167 31.5782 12.903 29.8095 12.8738 29.7805C13.1361 29.5921 13.6171 29.5486 14.4188 29.6211C14.958 29.6501 15.4681 29.737 15.9783 29.8531ZM12.6844 29.998C12.8592 30.2155 13.6754 31.1868 14.9434 32.3611C14.477 32.4336 13.5151 32.5061 12.8738 31.9262C12.8155 31.7522 12.7718 31.5782 12.7426 31.4333C12.5677 30.7519 12.5531 30.288 12.6844 29.998ZM14.3459 32.6945C14.7394 32.6945 15.06 32.6366 15.2058 32.5931C15.5993 32.9411 16.022 33.3035 16.4738 33.6514C16.4884 33.6804 16.5175 33.6949 16.5467 33.7094C17.1297 34.1589 17.7564 34.6083 18.4269 35.0142C17.975 35.3332 16.5904 36.145 14.9289 35.5941C13.9524 34.5358 13.3694 33.3469 13.0341 32.3756C13.4422 32.6221 13.9378 32.6945 14.3459 32.6945ZM20.3944 35.7246C19.0536 35.1302 17.8293 34.3328 16.7653 33.5209C16.8819 33.1005 17.2463 31.5492 16.3864 29.9545C17.5961 30.288 18.6892 30.8244 19.6512 31.4333C20.7005 33.463 20.4965 35.2027 20.3944 35.7246ZM16.2698 27.7944C16.2552 27.7944 16.226 27.7944 16.2115 27.7944C14.8414 27.113 14.0544 26.1271 13.4131 25.2573C13.5297 25.2718 13.6463 25.2863 13.7775 25.2863C14.3167 25.2863 14.8851 25.1413 15.0455 25.0978C15.7888 25.4313 16.503 25.7212 17.1734 25.9676C17.188 25.9822 17.2025 25.9822 17.2171 25.9822C17.9604 26.2431 18.6455 26.4606 19.2722 26.6346C18.8933 26.9825 17.873 27.7944 16.2698 27.7944ZM15.3515 22.2563C16.809 22.7782 17.0568 24.9384 17.1005 25.6197C15.7305 25.1123 14.171 24.4165 12.524 23.4741C12.5094 23.4741 12.5094 23.4741 12.4949 23.4596C12.6989 23.0536 13.69 22.6912 15.3515 22.2563ZM14.6082 24.8949C14.1855 24.9818 13.5443 25.0543 13.1799 24.8949C13.1653 24.8949 13.1507 24.8804 13.1361 24.8804C13.0341 24.7354 12.9321 24.5904 12.8301 24.4599C12.6115 24.1845 12.4803 23.9525 12.4511 23.764C13.1945 24.1989 13.9232 24.5759 14.6082 24.8949ZM21.0358 26.765C20.0884 26.5766 18.8349 26.2576 17.3774 25.7357C17.3629 25.2138 17.2171 22.9667 15.7742 22.1403C15.9054 22.1113 16.0365 22.0678 16.1823 22.0388C17.392 21.7344 18.558 22.0678 19.5783 22.6477C20.7443 24.4165 20.992 26.1996 21.0358 26.765ZM15.2641 17.0081C14.3021 15.7614 13.6609 14.3841 13.3548 12.8618C14.1418 13.2533 14.9726 13.3692 15.643 13.3692C16.2406 13.3692 16.707 13.2823 16.8965 13.2387C17.9022 14.3551 18.9515 15.6454 19.8698 16.9937C19.2285 17.1821 17.0131 17.704 15.2641 17.0081ZM18.6892 10.8902V10.9047C19.3159 12.2819 18.937 14.2681 18.7475 14.9785C18.1937 14.2826 17.6253 13.6157 17.0714 12.9923C17.0568 12.9633 17.0423 12.9488 17.0277 12.9344C15.2641 10.9917 13.7191 9.61438 13.486 9.4114C13.8066 9.23743 14.2875 9.32439 14.6519 9.42587C15.4681 9.68686 17.1443 10.1653 18.6892 10.8902ZM13.2819 9.62885C13.3402 9.67233 14.8851 11.0206 16.6779 12.9778C16.0803 13.0793 14.5645 13.2243 13.2965 12.4849C13.1945 11.8615 13.1507 11.2236 13.1653 10.5567V10.5277V10.4987C13.1507 10.5132 13.0487 9.97679 13.2819 9.62885ZM21.1378 18.5159C20.8609 18.023 20.5694 17.5156 20.2488 17.0372C20.2342 17.0081 20.2342 16.9937 20.2196 16.9791C19.8406 16.3993 19.4179 15.8338 18.9953 15.2829C19.1119 14.877 19.6658 12.7314 19.0828 11.0931C20.3216 11.7165 21.4293 12.5139 21.8665 13.4707L21.9977 13.7607C22.056 13.8912 22.1143 14.0361 22.1872 14.1666C22.2309 16.2108 21.4439 17.9215 21.1378 18.5159ZM25.0439 18.9218C25.3499 17.907 25.8018 16.9067 26.4139 16.0368C26.6617 17.4431 27.9588 18.1969 28.3524 18.3999C27.9734 20.2266 27.3758 22.3288 26.4868 23.996C26.0933 23.5755 24.971 22.0534 25.0439 18.9218ZM29.2852 14.2826C29.5767 14.4421 29.8099 14.8335 30.0285 15.5004L30.0722 15.6164C30.4949 16.8632 30.7427 18.0665 30.801 19.1973C29.7953 20.7341 28.4836 21.0965 27.9734 21.169C28.9354 18.023 29.2415 14.761 29.2852 14.2826ZM28.9937 14.1956C28.9937 14.2391 28.8479 15.9353 28.4107 18.0954C27.9588 17.849 26.7492 17.0516 26.6763 15.7033C26.9386 15.3699 27.2301 15.0655 27.5653 14.79C28.1775 14.3406 28.6439 14.1376 29.0083 14.1811C28.9937 14.1956 28.9937 14.1956 28.9937 14.1956ZM26.1807 25.0689C26.8803 24.054 27.4196 22.7782 27.8568 21.4734C28.2649 21.43 29.6496 21.198 30.801 19.6757C30.8301 21.43 30.4075 23.0392 29.5767 24.4599C28.1629 25.2863 26.72 25.1558 26.1807 25.0689ZM27.2156 31.4478C27.9152 30.4619 28.8479 29.4471 30.0722 28.6788C29.3435 30.6069 30.2326 32.2306 30.5095 32.6511C29.4892 33.7094 28.367 34.7387 27.1864 35.5506C27.0261 35.0722 26.6763 33.5934 27.2156 31.4478ZM34.78 27.8234C34.882 28.1423 34.9257 28.8237 34.4885 30.259C33.9637 30.6504 33.1912 30.5199 32.8415 30.4329C33.8763 29.1427 34.5905 28.1133 34.78 27.8234ZM34.5759 27.5914C34.5467 27.6349 32.9581 30.056 30.699 32.4336C30.4075 31.9552 29.6204 30.4039 30.4075 28.6063C30.4221 28.5627 30.4221 28.5193 30.3929 28.4758C31.486 27.8669 32.7686 27.461 34.299 27.432C34.4156 27.4464 34.5176 27.4754 34.5905 27.5479C34.6051 27.5769 34.5905 27.5769 34.5759 27.5914ZM29.2852 34.2458C29.7953 33.7819 30.2908 33.289 30.7718 32.796C30.7718 32.796 30.7718 32.796 30.7864 32.796C30.801 32.7816 30.8156 32.7671 30.8301 32.7526C31.5006 32.0422 32.1127 31.3318 32.652 30.6794C32.8123 30.7229 33.1621 30.8244 33.5702 30.8244C33.8326 30.8244 34.1095 30.7809 34.3718 30.6794C34.2552 31.0419 34.1095 31.4333 33.92 31.8827C33.8909 31.9552 33.8763 31.9987 33.8763 32.0132C33.8617 32.0422 33.4245 33.202 32.4042 34.5503C30.5241 34.9272 29.5913 34.4488 29.2852 34.2458ZM30.3492 38.856C29.3872 40.9292 29.8245 42.292 29.9848 42.6545C29.0083 43.3069 27.9297 43.9157 26.822 44.4232C26.7346 44.0462 26.3848 42.292 27.0989 40.7553C27.988 40.0594 29.0666 39.378 30.3492 38.856ZM32.2147 44.8291C29.9411 45.061 28.95 43.9737 28.7605 43.7418C29.7953 43.1474 30.7572 42.495 31.6172 41.8571C31.7192 41.9006 32.1419 42.0601 32.7977 42.0601C33.235 42.0601 33.7742 41.9876 34.4156 41.7701C33.9492 42.6689 33.2787 43.7998 32.2147 44.8291ZM34.7362 41.1177C34.6925 41.2047 34.6487 41.2916 34.6051 41.3931C33.235 41.944 32.2731 41.7701 31.8941 41.6541C33.7597 40.2333 35.0423 38.9575 35.2463 38.7546C35.4796 39.204 35.3775 39.8709 34.984 40.6103C34.9111 40.7408 34.8237 40.9147 34.7362 41.1177ZM32.8123 40.5378C32.0836 41.1467 31.1945 41.8136 30.218 42.4805C30.0577 42.0745 29.7078 40.7118 30.7281 38.6966C31.384 38.4502 32.069 38.2472 32.8123 38.0877C32.8269 38.0877 32.8561 38.0877 32.8706 38.0877C32.3605 38.9575 32.6812 40.1319 32.8123 40.5378ZM25.3937 45.293C26.4577 44.9305 27.5071 44.4376 28.4982 43.8867C28.6293 44.0752 29.533 45.1625 31.5881 45.1625C31.6755 45.1625 31.7775 45.1625 31.865 45.148C30.8156 46.0759 29.4018 46.8732 27.5071 47.2792C25.9038 47.1197 25.4812 45.7134 25.3937 45.293ZM47.9703 38.6821C47.6788 38.9865 47.2415 39.1605 46.8189 39.1315C46.6731 39.117 46.5419 39.088 46.3961 39.059C46.2359 39.03 46.0755 38.9865 45.9152 38.9721C45.5654 38.9431 45.1136 39.0446 44.895 39.407C44.72 39.6969 44.7492 40.0738 44.9533 40.4798C45.099 40.7697 45.6091 41.9876 45.6674 42.3065C45.682 42.408 45.7111 42.553 45.6966 42.6835C45.6966 42.7704 45.6674 42.8864 45.5945 42.9734C45.4634 43.1474 45.3614 43.3213 45.2594 43.5098C45.1136 43.7708 44.9824 44.0317 44.7492 44.1767L44.5306 44.3361L44.72 44.5101C45.1281 44.8871 45.4488 45.38 45.6237 45.9019C45.6674 46.0179 45.6966 46.1629 45.682 46.2934C45.6674 46.4673 45.5509 46.6413 45.3176 46.8443C45.2739 46.8878 45.2156 46.9312 45.1573 46.9747C44.9824 47.1197 44.8075 47.2647 44.6764 47.4531C44.6326 47.5111 44.5743 47.5836 44.5014 47.6416C44.3849 47.7576 44.2682 47.8736 44.1954 48.0621C44.1225 48.236 44.1079 48.4245 44.1225 48.6419C44.1516 48.9029 44.2391 49.1494 44.312 49.3813C44.3994 49.6278 44.4723 49.8598 44.4869 50.0917C44.516 50.6426 44.4869 51.2081 44.414 51.7735C44.3265 52.3823 44.137 52.8753 43.8455 53.2667C43.5104 53.7161 42.9565 54.0785 42.2715 54.325C41.5136 54.586 40.9014 54.7019 40.333 54.7019H39.0212C37.6366 54.615 36.4852 54.4555 35.4358 54.209L35.3921 54.1946C34.984 54.0931 34.5176 53.9916 34.0803 54.1221C33.7742 54.209 33.4973 54.3975 33.2496 54.6875C32.8561 55.1369 32.6083 56.3257 32.6083 56.3257C32.6083 56.3692 32.5646 56.6882 32.3022 56.8911C32.069 57.0796 31.7338 57.1376 31.282 57.065C31.0925 57.0361 30.7718 56.9926 30.3492 56.9346C23.7176 56.0212 20.0738 55.3689 19.4908 54.9774C19.7678 54.3685 19.8698 54.151 19.8698 54.151C21.0212 51.9764 21.954 49.8887 22.7119 47.8736C23.3823 47.946 24.0091 47.975 24.6067 47.975C31.8504 47.975 34.1678 43.1764 35.1006 41.2772C35.2026 41.0887 35.2755 40.9148 35.3484 40.7843C35.8585 39.8274 35.9168 38.9431 35.5087 38.3487C35.1881 37.8992 34.4593 37.4063 32.7395 37.6383C30.4366 38.1022 28.5856 39.0736 27.1572 40.1174C27.1135 40.1174 27.0552 40.1463 27.0261 40.1899C27.0115 40.2043 27.0115 40.2189 26.9969 40.2333C25.7289 41.1902 24.8253 42.176 24.2714 42.8719C24.6067 41.4946 24.869 40.1899 25.0584 38.9285C31.8067 38.5951 34.2115 32.1582 34.2407 32.1001C34.2407 32.0857 34.2552 32.0567 34.2844 31.9987C34.9402 30.3895 35.6107 28.2873 35.0569 27.403C34.8966 27.142 34.6342 26.997 34.3136 26.9825C31.4568 27.0115 28.95 28.3598 27.0698 30.8534C26.3411 31.8247 25.8455 32.7816 25.5248 33.4919C25.5394 32.3611 25.4812 31.3173 25.4083 30.3895C25.3645 29.911 25.3208 29.4471 25.2625 28.9977C28.7313 27.055 30.7136 24.4165 31.1508 21.1545C31.5006 18.5304 30.7427 16.2833 30.4657 15.4424L30.4366 15.3409C30.2326 14.7175 29.9119 13.9782 29.2706 13.7752C28.7459 13.6157 28.1192 13.8187 27.2884 14.4276C24.5629 16.7037 23.9945 20.8935 23.8924 23.0392C23.5281 22.0243 23.222 21.3864 23.12 21.169C24.1548 17.5446 23.324 15.6164 22.4058 13.6157V13.6012C22.3913 13.5867 22.3913 13.5577 22.3767 13.5432L22.2455 13.2678C21.1669 10.8612 16.3572 9.48389 14.7831 9.01999C14.0106 8.78801 13.4276 8.84602 13.0633 9.17942C12.5677 9.62885 12.6844 10.3972 12.6989 10.5567C12.6406 15.022 15.0746 17.8635 17.1443 19.4583C19.141 21.0095 21.1232 21.7054 21.575 21.8504C22.0414 22.7927 22.4204 23.7496 22.741 24.7209C21.5313 23.3146 18.9661 20.879 16.0803 21.5894C13.4859 22.2273 12.2762 22.6332 12.0285 23.3581C11.8681 23.8365 12.1742 24.3294 12.4803 24.7064C12.6115 24.8659 12.7426 25.0543 12.8884 25.2428C13.894 26.6346 15.2787 28.5338 18.9661 28.9977C19.9718 29.1282 20.7734 29.1717 21.4293 29.1717C22.6536 29.1717 23.3094 29.0122 23.6593 28.8672C23.907 30.7954 23.9216 32.7091 23.7904 34.5503C22.7119 33.2165 19.2576 29.5051 14.4625 29.1717C13.6609 29.0992 12.8592 29.0992 12.4511 29.5776C12.1305 29.9545 12.0868 30.549 12.3345 31.5203C12.5969 32.5641 13.2674 34.5358 14.8851 36.145C16.6195 37.8702 18.937 38.7256 21.8083 38.7256C22.2747 38.7256 22.7556 38.6966 23.2512 38.6531C22.9451 40.2189 22.5662 41.6976 22.158 43.0314C21.8811 43.9157 21.5896 44.7856 21.2981 45.5975C21.0649 44.8146 20.5694 43.4953 19.5929 42.176C18.2083 40.3058 15.5848 38.0877 10.8479 38.2036C9.11348 38.2182 8.13697 38.5226 7.78713 39.175C7.51023 39.6969 7.65598 40.3928 8.23898 41.3062L8.34099 41.4801C9.53613 43.3793 12.3345 47.7721 20.2779 48.1636C18.8204 51.5705 17.4503 53.7596 17.4358 53.7886L17.3192 53.9916C17.29 54.0351 17.0423 54.3105 14.8123 53.8321C13.4422 53.5422 11.8973 53.0927 10.979 52.8173C10.673 52.7303 10.4252 52.6578 10.294 52.6143C8.69077 52.2229 8.28272 51.7735 8.19525 51.5415C8.12237 51.382 8.18064 51.266 8.19525 51.237C9.37585 49.5263 9.40498 47.0182 8.26812 44.5681C7.65598 43.2344 6.79608 42.0165 5.96526 40.8423C5.51347 40.2043 5.03248 39.5375 4.60983 38.856C1.0098 33.115 0.120734 25.3153 2.07377 16.9067C2.56932 14.8045 3.34179 12.0934 4.97421 9.8753C7.39362 6.58437 11.1248 5.01863 13.8358 4.27924C17.3192 3.3224 20.992 3.17743 24.5338 3.01796C26.1953 2.94547 27.9152 2.87298 29.5476 3.3079C31.3111 3.78633 32.7103 4.87365 33.2641 6.22193C33.716 7.32374 33.5265 8.70099 32.8123 9.59984L32.6811 9.80282C36.2957 12.0065 39.3856 15.4714 41.0035 19.3568C41.3241 20.1107 41.601 20.8935 41.878 21.6619C42.0237 22.0823 42.184 22.5173 42.3444 22.9377C42.7233 23.938 43.2043 25.1993 42.971 26.3591C42.9128 26.6056 42.8399 26.852 42.7524 27.0985C42.665 27.3449 42.5921 27.5914 42.5338 27.8669C42.2423 29.2731 43.9621 31.4768 44.035 31.5638C44.0642 31.5928 46.3961 34.6518 47.5913 36.145C47.912 36.551 48.2909 37.0149 48.3638 37.5368C48.4075 37.9282 48.2618 38.3776 47.9703 38.6821Z" stroke="white" stroke-opacity="0.4" stroke-width="0.5"/>
</svg>
